<svg width="150" height="179" viewBox="0 0 150 179" fill="none" xmlns="http://www.w3.org/2000/svg">
<g clip-path="url(#clip0_853_152)">
<mask id="mask0_853_152" style="mask-type:luminance" maskUnits="userSpaceOnUse" x="0" y="0" width="150" height="179">
<path d="M149.95 0H0V179H149.95V0Z" fill="white"/>
</mask>
<g mask="url(#mask0_853_152)">
<path d="M100.773 109.429C127.912 109.429 149.95 133.009 149.95 162.049V179H51.5908V162.049C51.5908 133.009 73.628 109.429 100.767 109.429H100.773Z" fill="#5F2779"/>
<path d="M100.774 99.7387C119.455 99.7387 134.599 83.5344 134.599 63.5449C134.599 43.5556 119.455 27.3511 100.774 27.3511C82.0921 27.3511 66.9482 43.5556 66.9482 63.5449C66.9482 83.5344 82.0921 99.7387 100.774 99.7387Z" fill="#5F2779"/>
<path d="M49.1766 109.429C76.316 109.429 98.3532 133.009 98.3532 162.049V179H0V162.049C0 133.009 22.0372 109.429 49.1766 109.429Z" fill="url(#paint0_linear_853_152)"/>
<path d="M49.1768 99.7387C67.8582 99.7387 83.0021 83.5344 83.0021 63.5449C83.0021 43.5556 67.8582 27.3511 49.1768 27.3511C30.4957 27.3511 15.3516 43.5556 15.3516 63.5449C15.3516 83.5344 30.4957 99.7387 49.1768 99.7387Z" fill="url(#paint1_linear_853_152)"/>
<path d="M85.0042 5.36403C85.0042 2.3986 82.757 0 79.9912 0C77.2254 0 74.9782 2.40457 74.9782 5.36403C74.9782 2.3986 72.731 0 69.9652 0C67.1994 0 64.9521 2.40457 64.9521 5.36403C64.9521 6.96907 65.6213 8.38913 66.664 9.37363L70.7347 13.4131L74.9893 17.6375L79.244 13.4131L83.4819 9.20657C84.4187 8.234 85.0098 6.8736 85.0098 5.36403H85.0042Z" fill="#FD4A8A"/>
<path d="M85.0039 0H64.9463V13.6995H85.0039V0Z" fill="#FD4A8A"/>
</g>
</g>
<defs>
<linearGradient id="paint0_linear_853_152" x1="49.1766" y1="41.2356" x2="49.1766" y2="248.697" gradientUnits="userSpaceOnUse">
<stop offset="0.14" stop-color="#22CCAD"/>
<stop offset="0.7" stop-color="#58D0BF" stop-opacity="0"/>
</linearGradient>
<linearGradient id="paint1_linear_853_152" x1="49.1768" y1="12.9953" x2="49.1768" y2="306.376" gradientUnits="userSpaceOnUse">
<stop offset="0.14" stop-color="#22CCAD"/>
<stop offset="0.7" stop-color="#58D0BF" stop-opacity="0"/>
</linearGradient>
<clipPath id="clip0_853_152">
<rect width="150" height="179" fill="white"/>
</clipPath>
</defs>
</svg>
