<svg width="150" height="162" viewBox="0 0 150 162" fill="none" xmlns="http://www.w3.org/2000/svg">
<g clip-path="url(#clip0_853_172)">
<path d="M141.507 62.9995H25.3389V99.0002H141.507V62.9995Z" fill="#5F2779"/>
<path d="M150 107.996V53.998H16.8906V107.996H150Z" fill="url(#paint0_linear_853_172)"/>
<path d="M126.445 107.996H0V116.998H8.44794V152.999H0V162H126.445C139.454 162 149.995 150.763 149.995 136.907V133.1C149.995 119.239 139.449 108.007 126.445 108.007V107.996Z" fill="url(#paint1_linear_853_172)"/>
<path d="M126.445 0H33.7812V9.00153H42.2292V45.0021H33.7812V54.0038H126.445C139.454 54.0038 149.995 42.7666 149.995 28.9106V25.1038C149.995 11.2424 139.448 0.0107937 126.445 0.0107937V0Z" fill="url(#paint2_linear_853_172)"/>
<path d="M141.502 134.996C141.502 144.931 133.931 152.993 124.611 152.993H8.44336V116.993H124.611C133.936 116.993 141.502 125.06 141.502 134.99V134.996Z" fill="#5F2779"/>
<path d="M141.507 26.4861V27.5175C141.507 37.1669 134.153 45.002 125.097 45.002H42.2295V9.00146H125.097C134.153 9.00146 141.507 16.8366 141.507 26.4861Z" fill="#5F2779"/>
<path d="M120.48 9.00146H101.486V29.24H120.48V9.00146Z" fill="#FE4A8B"/>
<path d="M120.48 39.3598L110.983 34.3L101.486 39.3598V29.2402H120.48V39.3598Z" fill="#FE4A8B"/>
<path d="M83.4401 85.4955V76.4937H34.9619V85.4955H83.4401Z" fill="white"/>
<path d="M133.059 85.5008V76.499H124.611V85.5008H133.059Z" fill="white"/>
</g>
<defs>
<linearGradient id="paint0_linear_853_172" x1="165.745" y1="80.9972" x2="-126.942" y2="80.9972" gradientUnits="userSpaceOnUse">
<stop stop-color="#22CCAD"/>
<stop offset="0.56" stop-color="#58D0BF" stop-opacity="0"/>
</linearGradient>
<linearGradient id="paint1_linear_853_172" x1="180.878" y1="134.996" x2="-251.968" y2="134.996" gradientUnits="userSpaceOnUse">
<stop stop-color="#22CCAD"/>
<stop offset="0.56" stop-color="#58D0BF" stop-opacity="0"/>
</linearGradient>
<linearGradient id="paint2_linear_853_172" x1="173.479" y1="26.9991" x2="-233.963" y2="26.9991" gradientUnits="userSpaceOnUse">
<stop stop-color="#22CCAD"/>
<stop offset="0.56" stop-color="#58D0BF" stop-opacity="0"/>
</linearGradient>
<clipPath id="clip0_853_172">
<rect width="150" height="162" fill="white"/>
</clipPath>
</defs>
</svg>
