<svg width="142" height="175" viewBox="0 0 142 175" fill="none" xmlns="http://www.w3.org/2000/svg">
<g clip-path="url(#clip0_853_183)">
<path d="M117.343 131.46L92.6865 116.946V131.845H45.5537C35.7174 131.845 27.7179 123.69 27.7179 113.662C27.7179 103.635 35.7174 95.474 45.5537 95.474H92.6865V67.2231H45.5537C20.4336 67.2231 0 88.054 0 113.662C0 139.271 20.4336 160.101 45.5537 160.101H92.6865V175L117.343 160.486L142 145.973L117.343 131.46Z" fill="#5F2779"/>
<path d="M93.5902 14.8983H52.2254V0L27.5689 14.5133L2.91211 29.0267L27.5689 43.54L52.2254 58.0533V43.155H93.5902C103.427 43.155 111.426 51.31 111.426 61.3375C111.426 71.365 103.427 79.52 93.5902 79.52H52.2254V107.771H93.5902C118.71 107.771 139.144 86.94 139.144 61.3317C139.144 35.7233 118.71 14.8983 93.5902 14.8983Z" fill="url(#paint0_linear_853_183)"/>
<path d="M129.863 79.6018C129.863 73.4675 124.986 68.4951 118.968 68.4951C112.951 68.4951 108.073 73.4675 108.073 79.6018C108.073 85.7355 112.951 90.7085 118.968 90.7085C124.986 90.7085 129.863 85.7355 129.863 79.6018Z" fill="#FD4A8A"/>
<path d="M26.6765 103.641C26.6765 97.5071 21.7987 92.5342 15.7816 92.5342C9.76456 92.5342 4.88672 97.5071 4.88672 103.641C4.88672 109.775 9.76456 114.748 15.7816 114.748C21.7987 114.748 26.6765 109.775 26.6765 103.641Z" fill="white"/>
</g>
<defs>
<linearGradient id="paint0_linear_853_183" x1="-143.517" y1="55.3817" x2="857.195" y2="48.7359" gradientUnits="userSpaceOnUse">
<stop stop-color="#22CCAD"/>
<stop offset="0.56" stop-color="#58D0BF" stop-opacity="0"/>
</linearGradient>
<clipPath id="clip0_853_183">
<rect width="142" height="175" fill="white"/>
</clipPath>
</defs>
</svg>
