<svg width="320" height="120" viewBox="0 0 320 120" fill="none" xmlns="http://www.w3.org/2000/svg">
<g filter="url(#filter0_d_614_46)">
<rect x="8" y="8" width="300" height="100" rx="20" fill="black"/>
<path d="M119.164 31.5469H123.391C124.344 31.5469 125.07 31.6198 125.57 31.7656C126.242 31.9635 126.818 32.3151 127.297 32.8203C127.776 33.3255 128.141 33.9453 128.391 34.6797C128.641 35.4089 128.766 36.3099 128.766 37.3828C128.766 38.3255 128.648 39.138 128.414 39.8203C128.128 40.6536 127.719 41.3281 127.188 41.8438C126.786 42.2344 126.245 42.5391 125.562 42.7578C125.052 42.9193 124.37 43 123.516 43H119.164V31.5469ZM121.477 33.4844V41.0703H123.203C123.849 41.0703 124.315 41.0339 124.602 40.9609C124.977 40.8672 125.286 40.7083 125.531 40.4844C125.781 40.2604 125.984 39.8932 126.141 39.3828C126.297 38.8672 126.375 38.1667 126.375 37.2812C126.375 36.3958 126.297 35.7161 126.141 35.2422C125.984 34.7682 125.766 34.3984 125.484 34.1328C125.203 33.8672 124.846 33.6875 124.414 33.5938C124.091 33.5208 123.458 33.4844 122.516 33.4844H121.477ZM130.211 38.7344C130.211 38.0052 130.391 37.2995 130.75 36.6172C131.109 35.9349 131.617 35.4141 132.273 35.0547C132.935 34.6953 133.672 34.5156 134.484 34.5156C135.74 34.5156 136.768 34.9245 137.57 35.7422C138.372 36.5547 138.773 37.5833 138.773 38.8281C138.773 40.0833 138.367 41.125 137.555 41.9531C136.747 42.776 135.729 43.1875 134.5 43.1875C133.74 43.1875 133.013 43.0156 132.32 42.6719C131.633 42.3281 131.109 41.8255 130.75 41.1641C130.391 40.4974 130.211 39.6875 130.211 38.7344ZM132.461 38.8516C132.461 39.6745 132.656 40.3047 133.047 40.7422C133.438 41.1797 133.919 41.3984 134.492 41.3984C135.065 41.3984 135.544 41.1797 135.93 40.7422C136.32 40.3047 136.516 39.6693 136.516 38.8359C136.516 38.0234 136.32 37.3984 135.93 36.9609C135.544 36.5234 135.065 36.3047 134.492 36.3047C133.919 36.3047 133.438 36.5234 133.047 36.9609C132.656 37.3984 132.461 38.0286 132.461 38.8516ZM142.047 43L139.422 34.7031H141.555L143.109 40.1406L144.539 34.7031H146.656L148.039 40.1406L149.625 34.7031H151.789L149.125 43H147.016L145.586 37.6641L144.18 43H142.047ZM160.5 43H158.305V38.7656C158.305 37.8698 158.258 37.2917 158.164 37.0312C158.07 36.7656 157.917 36.5599 157.703 36.4141C157.495 36.2682 157.242 36.1953 156.945 36.1953C156.565 36.1953 156.224 36.2995 155.922 36.5078C155.62 36.7161 155.411 36.9922 155.297 37.3359C155.188 37.6797 155.133 38.3151 155.133 39.2422V43H152.938V34.7031H154.977V35.9219C155.701 34.9844 156.612 34.5156 157.711 34.5156C158.195 34.5156 158.638 34.6042 159.039 34.7812C159.44 34.9531 159.742 35.1745 159.945 35.4453C160.154 35.7161 160.297 36.0234 160.375 36.3672C160.458 36.7109 160.5 37.2031 160.5 37.8438V43ZM162.734 43V31.5469H164.93V43H162.734ZM166.68 38.7344C166.68 38.0052 166.859 37.2995 167.219 36.6172C167.578 35.9349 168.086 35.4141 168.742 35.0547C169.404 34.6953 170.141 34.5156 170.953 34.5156C172.208 34.5156 173.237 34.9245 174.039 35.7422C174.841 36.5547 175.242 37.5833 175.242 38.8281C175.242 40.0833 174.836 41.125 174.023 41.9531C173.216 42.776 172.198 43.1875 170.969 43.1875C170.208 43.1875 169.482 43.0156 168.789 42.6719C168.102 42.3281 167.578 41.8255 167.219 41.1641C166.859 40.4974 166.68 39.6875 166.68 38.7344ZM168.93 38.8516C168.93 39.6745 169.125 40.3047 169.516 40.7422C169.906 41.1797 170.388 41.3984 170.961 41.3984C171.534 41.3984 172.013 41.1797 172.398 40.7422C172.789 40.3047 172.984 39.6693 172.984 38.8359C172.984 38.0234 172.789 37.3984 172.398 36.9609C172.013 36.5234 171.534 36.3047 170.961 36.3047C170.388 36.3047 169.906 36.5234 169.516 36.9609C169.125 37.3984 168.93 38.0286 168.93 38.8516ZM178.609 37.2344L176.617 36.875C176.841 36.0729 177.227 35.4792 177.773 35.0938C178.32 34.7083 179.133 34.5156 180.211 34.5156C181.19 34.5156 181.919 34.6328 182.398 34.8672C182.878 35.0964 183.214 35.3906 183.406 35.75C183.604 36.1042 183.703 36.7578 183.703 37.7109L183.68 40.2734C183.68 41.0026 183.714 41.5417 183.781 41.8906C183.854 42.2344 183.987 42.6042 184.18 43H182.008C181.951 42.8542 181.88 42.638 181.797 42.3516C181.76 42.2214 181.734 42.1354 181.719 42.0938C181.344 42.4583 180.943 42.7318 180.516 42.9141C180.089 43.0964 179.633 43.1875 179.148 43.1875C178.294 43.1875 177.62 42.9557 177.125 42.4922C176.635 42.0286 176.391 41.4427 176.391 40.7344C176.391 40.2656 176.503 39.849 176.727 39.4844C176.951 39.1146 177.263 38.8333 177.664 38.6406C178.07 38.4427 178.654 38.2708 179.414 38.125C180.44 37.9323 181.151 37.7526 181.547 37.5859V37.3672C181.547 36.9453 181.443 36.6458 181.234 36.4688C181.026 36.2865 180.633 36.1953 180.055 36.1953C179.664 36.1953 179.359 36.2734 179.141 36.4297C178.922 36.5807 178.745 36.849 178.609 37.2344ZM181.547 39.0156C181.266 39.1094 180.82 39.2214 180.211 39.3516C179.602 39.4818 179.203 39.6094 179.016 39.7344C178.729 39.9375 178.586 40.1953 178.586 40.5078C178.586 40.8151 178.701 41.0807 178.93 41.3047C179.159 41.5286 179.451 41.6406 179.805 41.6406C180.201 41.6406 180.578 41.5104 180.938 41.25C181.203 41.0521 181.378 40.8099 181.461 40.5234C181.518 40.3359 181.547 39.9792 181.547 39.4531V39.0156ZM193.484 43H191.445V41.7812C191.107 42.2552 190.706 42.6094 190.242 42.8438C189.784 43.0729 189.32 43.1875 188.852 43.1875C187.898 43.1875 187.081 42.8047 186.398 42.0391C185.721 41.2682 185.383 40.1953 185.383 38.8203C185.383 37.4141 185.714 36.3464 186.375 35.6172C187.036 34.8828 187.872 34.5156 188.883 34.5156C189.81 34.5156 190.612 34.901 191.289 35.6719V31.5469H193.484V43ZM187.625 38.6719C187.625 39.5573 187.747 40.1979 187.992 40.5938C188.346 41.1667 188.841 41.4531 189.477 41.4531C189.982 41.4531 190.411 41.2396 190.766 40.8125C191.12 40.3802 191.297 39.737 191.297 38.8828C191.297 37.9297 191.125 37.2448 190.781 36.8281C190.438 36.4062 189.997 36.1953 189.461 36.1953C188.94 36.1953 188.503 36.4036 188.148 36.8203C187.799 37.2318 187.625 37.849 187.625 38.6719ZM199.602 38.7344C199.602 38.0052 199.781 37.2995 200.141 36.6172C200.5 35.9349 201.008 35.4141 201.664 35.0547C202.326 34.6953 203.062 34.5156 203.875 34.5156C205.13 34.5156 206.159 34.9245 206.961 35.7422C207.763 36.5547 208.164 37.5833 208.164 38.8281C208.164 40.0833 207.758 41.125 206.945 41.9531C206.138 42.776 205.12 43.1875 203.891 43.1875C203.13 43.1875 202.404 43.0156 201.711 42.6719C201.023 42.3281 200.5 41.8255 200.141 41.1641C199.781 40.4974 199.602 39.6875 199.602 38.7344ZM201.852 38.8516C201.852 39.6745 202.047 40.3047 202.438 40.7422C202.828 41.1797 203.31 41.3984 203.883 41.3984C204.456 41.3984 204.935 41.1797 205.32 40.7422C205.711 40.3047 205.906 39.6693 205.906 38.8359C205.906 38.0234 205.711 37.3984 205.32 36.9609C204.935 36.5234 204.456 36.3047 203.883 36.3047C203.31 36.3047 202.828 36.5234 202.438 36.9609C202.047 37.3984 201.852 38.0286 201.852 38.8516ZM217.438 43H215.242V38.7656C215.242 37.8698 215.195 37.2917 215.102 37.0312C215.008 36.7656 214.854 36.5599 214.641 36.4141C214.432 36.2682 214.18 36.1953 213.883 36.1953C213.503 36.1953 213.161 36.2995 212.859 36.5078C212.557 36.7161 212.349 36.9922 212.234 37.3359C212.125 37.6797 212.07 38.3151 212.07 39.2422V43H209.875V34.7031H211.914V35.9219C212.638 34.9844 213.549 34.5156 214.648 34.5156C215.133 34.5156 215.576 34.6042 215.977 34.7812C216.378 34.9531 216.68 35.1745 216.883 35.4453C217.091 35.7161 217.234 36.0234 217.312 36.3672C217.396 36.7109 217.438 37.2031 217.438 37.8438V43ZM227.93 34.7031V36.4531H226.43V39.7969C226.43 40.474 226.443 40.8698 226.469 40.9844C226.5 41.0938 226.565 41.1849 226.664 41.2578C226.768 41.3307 226.893 41.3672 227.039 41.3672C227.242 41.3672 227.536 41.2969 227.922 41.1562L228.109 42.8594C227.599 43.0781 227.021 43.1875 226.375 43.1875C225.979 43.1875 225.622 43.1224 225.305 42.9922C224.987 42.8568 224.753 42.6849 224.602 42.4766C224.456 42.263 224.354 41.9766 224.297 41.6172C224.25 41.362 224.227 40.8464 224.227 40.0703V36.4531H223.219V34.7031H224.227V33.0547L226.43 31.7734V34.7031H227.93ZM231.641 31.5469V35.7578C232.349 34.9297 233.195 34.5156 234.18 34.5156C234.685 34.5156 235.141 34.6094 235.547 34.7969C235.953 34.9844 236.258 35.224 236.461 35.5156C236.669 35.8073 236.81 36.1302 236.883 36.4844C236.961 36.8385 237 37.388 237 38.1328V43H234.805V38.6172C234.805 37.7474 234.763 37.1953 234.68 36.9609C234.596 36.7266 234.448 36.5417 234.234 36.4062C234.026 36.2656 233.763 36.1953 233.445 36.1953C233.081 36.1953 232.755 36.2839 232.469 36.4609C232.182 36.638 231.971 36.9062 231.836 37.2656C231.706 37.6198 231.641 38.1458 231.641 38.8438V43H229.445V31.5469H231.641ZM244.039 40.3594L246.227 40.7266C245.945 41.5286 245.5 42.1406 244.891 42.5625C244.286 42.9792 243.529 43.1875 242.617 43.1875C241.174 43.1875 240.107 42.7161 239.414 41.7734C238.867 41.0182 238.594 40.0651 238.594 38.9141C238.594 37.5391 238.953 36.4635 239.672 35.6875C240.391 34.9062 241.299 34.5156 242.398 34.5156C243.633 34.5156 244.607 34.9245 245.32 35.7422C246.034 36.5547 246.375 37.8021 246.344 39.4844H240.844C240.859 40.1354 241.036 40.6432 241.375 41.0078C241.714 41.3672 242.135 41.5469 242.641 41.5469C242.984 41.5469 243.273 41.4531 243.508 41.2656C243.742 41.0781 243.919 40.776 244.039 40.3594ZM244.164 38.1406C244.148 37.5052 243.984 37.0234 243.672 36.6953C243.359 36.362 242.979 36.1953 242.531 36.1953C242.052 36.1953 241.656 36.3698 241.344 36.7188C241.031 37.0677 240.878 37.5417 240.883 38.1406H244.164Z" fill="white"/>
<path d="M141.812 78H136.624L134.561 72.6343H125.119L123.169 78H118.109L127.31 54.3779H132.354L141.812 78ZM133.03 68.6543L129.775 59.8887L126.585 68.6543H133.03ZM144.197 60.8877H148.418V63.4014C148.966 62.542 149.708 61.8438 150.642 61.3066C151.577 60.7695 152.613 60.501 153.752 60.501C155.739 60.501 157.426 61.2798 158.812 62.8374C160.197 64.395 160.89 66.5649 160.89 69.3472C160.89 72.2046 160.192 74.4282 158.795 76.0181C157.399 77.5972 155.707 78.3867 153.72 78.3867C152.774 78.3867 151.915 78.1987 151.142 77.8228C150.379 77.4468 149.573 76.8022 148.725 75.8892V84.5098H144.197V60.8877ZM148.676 69.1538C148.676 71.0767 149.058 72.5 149.82 73.4238C150.583 74.3369 151.512 74.7935 152.608 74.7935C153.661 74.7935 154.536 74.3745 155.234 73.5366C155.933 72.688 156.282 71.3022 156.282 69.3794C156.282 67.5854 155.922 66.2534 155.202 65.3833C154.482 64.5132 153.591 64.0781 152.527 64.0781C151.421 64.0781 150.502 64.5078 149.772 65.3672C149.042 66.2158 148.676 67.478 148.676 69.1538ZM164.371 60.8877H168.592V63.4014C169.14 62.542 169.881 61.8438 170.816 61.3066C171.75 60.7695 172.787 60.501 173.926 60.501C175.913 60.501 177.6 61.2798 178.985 62.8374C180.371 64.395 181.064 66.5649 181.064 69.3472C181.064 72.2046 180.366 74.4282 178.969 76.0181C177.573 77.5972 175.881 78.3867 173.894 78.3867C172.948 78.3867 172.089 78.1987 171.315 77.8228C170.553 77.4468 169.747 76.8022 168.898 75.8892V84.5098H164.371V60.8877ZM168.85 69.1538C168.85 71.0767 169.231 72.5 169.994 73.4238C170.757 74.3369 171.686 74.7935 172.782 74.7935C173.834 74.7935 174.71 74.3745 175.408 73.5366C176.106 72.688 176.456 71.3022 176.456 69.3794C176.456 67.5854 176.096 66.2534 175.376 65.3833C174.656 64.5132 173.765 64.0781 172.701 64.0781C171.595 64.0781 170.676 64.5078 169.946 65.3672C169.215 66.2158 168.85 67.478 168.85 69.1538ZM192.682 70.314L197.322 69.8628C197.602 71.4204 198.166 72.5645 199.014 73.2949C199.874 74.0254 201.028 74.3906 202.479 74.3906C204.015 74.3906 205.169 74.0684 205.943 73.4238C206.727 72.7686 207.119 72.0059 207.119 71.1357C207.119 70.5771 206.953 70.1045 206.62 69.7178C206.297 69.3203 205.728 68.9766 204.912 68.6865C204.353 68.4932 203.08 68.1494 201.093 67.6553C198.536 67.0215 196.742 66.2427 195.711 65.3188C194.261 64.019 193.536 62.4346 193.536 60.5654C193.536 59.3623 193.874 58.2397 194.551 57.1978C195.238 56.145 196.221 55.3447 197.5 54.7969C198.789 54.249 200.341 53.9751 202.156 53.9751C205.121 53.9751 207.35 54.625 208.843 55.9248C210.347 57.2246 211.137 58.9595 211.212 61.1294L206.442 61.3389C206.238 60.125 205.798 59.2549 205.121 58.7285C204.455 58.1914 203.451 57.9229 202.108 57.9229C200.722 57.9229 199.637 58.2075 198.853 58.7769C198.348 59.1421 198.096 59.6309 198.096 60.2432C198.096 60.8018 198.332 61.2798 198.805 61.6772C199.406 62.1821 200.867 62.7085 203.188 63.2563C205.508 63.8042 207.221 64.3735 208.328 64.9644C209.445 65.5444 210.315 66.3447 210.938 67.3652C211.572 68.375 211.889 69.6265 211.889 71.1196C211.889 72.4731 211.513 73.7407 210.761 74.9224C210.009 76.104 208.945 76.9849 207.57 77.5649C206.195 78.1343 204.482 78.4189 202.43 78.4189C199.444 78.4189 197.15 77.7314 195.55 76.3564C193.949 74.9707 192.993 72.9565 192.682 70.314ZM223.716 60.8877V64.4971H220.622V71.3936C220.622 72.79 220.649 73.6064 220.703 73.8428C220.767 74.0684 220.901 74.2563 221.105 74.4067C221.32 74.5571 221.578 74.6323 221.879 74.6323C222.298 74.6323 222.905 74.4873 223.7 74.1973L224.086 77.71C223.034 78.1611 221.841 78.3867 220.509 78.3867C219.693 78.3867 218.957 78.2524 218.302 77.9839C217.646 77.7046 217.163 77.3501 216.852 76.9204C216.551 76.48 216.341 75.8892 216.223 75.1479C216.126 74.6216 216.078 73.5581 216.078 71.9575V64.4971H214V60.8877H216.078V57.4878L220.622 54.8452V60.8877H223.716ZM225.811 69.2021C225.811 67.6982 226.181 66.2427 226.922 64.8354C227.664 63.4282 228.711 62.354 230.064 61.6128C231.429 60.8716 232.949 60.501 234.625 60.501C237.213 60.501 239.335 61.3442 240.989 63.0308C242.644 64.7065 243.471 66.8281 243.471 69.3955C243.471 71.9844 242.633 74.1328 240.957 75.8408C239.292 77.5381 237.192 78.3867 234.657 78.3867C233.088 78.3867 231.59 78.0322 230.161 77.3232C228.743 76.6143 227.664 75.5776 226.922 74.2134C226.181 72.8384 225.811 71.168 225.811 69.2021ZM230.451 69.4438C230.451 71.1411 230.854 72.4409 231.66 73.3433C232.465 74.2456 233.459 74.6968 234.641 74.6968C235.822 74.6968 236.811 74.2456 237.605 73.3433C238.411 72.4409 238.814 71.1304 238.814 69.4116C238.814 67.7358 238.411 66.4468 237.605 65.5444C236.811 64.6421 235.822 64.1909 234.641 64.1909C233.459 64.1909 232.465 64.6421 231.66 65.5444C230.854 66.4468 230.451 67.7466 230.451 69.4438ZM251.366 78H246.838V60.8877H251.044V63.3208C251.764 62.1714 252.408 61.4141 252.978 61.0488C253.558 60.6836 254.213 60.501 254.943 60.501C255.975 60.501 256.968 60.7856 257.924 61.355L256.522 65.3027C255.76 64.8086 255.051 64.5615 254.396 64.5615C253.762 64.5615 253.225 64.7388 252.784 65.0933C252.344 65.437 251.995 66.0654 251.737 66.9785C251.49 67.8916 251.366 69.8037 251.366 72.7148V78ZM269.8 72.5537L274.312 73.311C273.731 74.9653 272.813 76.2275 271.556 77.0977C270.31 77.957 268.747 78.3867 266.867 78.3867C263.892 78.3867 261.689 77.4146 260.261 75.4702C259.133 73.9126 258.569 71.9468 258.569 69.5728C258.569 66.7368 259.31 64.5186 260.792 62.918C262.275 61.3066 264.149 60.501 266.416 60.501C268.962 60.501 270.971 61.3442 272.442 63.0308C273.914 64.7065 274.618 67.2793 274.553 70.749H263.209C263.242 72.0918 263.607 73.1392 264.305 73.8911C265.003 74.6323 265.874 75.0029 266.916 75.0029C267.625 75.0029 268.221 74.8096 268.704 74.4229C269.188 74.0361 269.553 73.4131 269.8 72.5537ZM270.058 67.9775C270.025 66.667 269.687 65.6733 269.042 64.9966C268.398 64.3091 267.614 63.9653 266.69 63.9653C265.702 63.9653 264.885 64.3252 264.241 65.0449C263.596 65.7646 263.279 66.7422 263.29 67.9775H270.058Z" fill="white"/>
<path d="M96 74.3542C94.4166 77.9974 93.6537 79.6241 91.614 82.8456C88.7693 87.3399 84.7514 92.9399 79.7789 92.9876C75.3622 93.0274 74.2274 90.0047 68.2274 90.0405C62.2312 90.0723 60.9813 93.0433 56.5609 92.9995C51.5883 92.9518 47.7813 87.8967 44.9327 83.3985C36.9697 70.8304 36.1378 56.0748 41.049 48.2277C44.5378 42.6556 50.0471 39.3942 55.2228 39.3942C60.4944 39.3942 63.8107 42.3931 68.166 42.3931C72.3948 42.3931 74.9712 39.3863 81.067 39.3863C85.6677 39.3863 90.5521 41.9914 94.0294 46.4856C82.6351 52.9646 84.483 69.844 96 74.3542ZM76.4434 34.367C78.6555 31.4159 80.3386 27.2557 79.729 23C76.1098 23.2585 71.8811 25.6449 69.4082 28.7591C67.1692 31.5829 65.3174 35.7709 66.0344 39.8436C69.9833 39.9669 74.0702 37.5209 76.4434 34.367Z" fill="white"/>
</g>
<defs>
<filter id="filter0_d_614_46" x="0" y="0" width="320" height="120" filterUnits="userSpaceOnUse" color-interpolation-filters="sRGB">
<feFlood flood-opacity="0" result="BackgroundImageFix"/>
<feColorMatrix in="SourceAlpha" type="matrix" values="0 0 0 0 0 0 0 0 0 0 0 0 0 0 0 0 0 0 127 0" result="hardAlpha"/>
<feOffset dx="2" dy="2"/>
<feGaussianBlur stdDeviation="5"/>
<feComposite in2="hardAlpha" operator="out"/>
<feColorMatrix type="matrix" values="0 0 0 0 0.670833 0 0 0 0 0.670833 0 0 0 0 0.670833 0 0 0 0.25 0"/>
<feBlend mode="normal" in2="BackgroundImageFix" result="effect1_dropShadow_614_46"/>
<feBlend mode="normal" in="SourceGraphic" in2="effect1_dropShadow_614_46" result="shape"/>
</filter>
</defs>
</svg>
