<svg width="320" height="120" viewBox="0 0 320 120" fill="none" xmlns="http://www.w3.org/2000/svg">
<g filter="url(#filter0_d_614_45)">
<rect x="8" y="8" width="300" height="100" rx="20" fill="black"/>
<mask id="mask0_614_45" style="mask-type:alpha" maskUnits="userSpaceOnUse" x="28" y="28" width="60" height="60">
<path d="M85.621 54.3086C88.793 55.9198 88.793 60.0801 85.621 61.6913L34.8907 87.4597C31.8013 89.0289 28 86.9924 28 83.7683V32.2317C28 29.0075 31.8013 26.9711 34.8907 28.5403L85.621 54.3086Z" fill="#C4C4C4"/>
</mask>
<g mask="url(#mask0_614_45)">
<path d="M29.5868 86.9536L61.2308 57.5797L30.108 28.6896C28.8663 29.4243 28 30.6928 28 32.232V83.7685C28 85.0818 28.6306 86.1978 29.5868 86.9536Z" fill="url(#paint0_linear_614_45)"/>
<path d="M85.62 54.3084C88.7922 55.9196 88.7922 60.0797 85.62 61.6909L72.8217 68.1919L61.23 57.5788L72.2307 47.5071L85.62 54.3084Z" fill="url(#paint1_linear_614_45)"/>
<path d="M72.8232 68.1926L61.2312 57.5798L29.5872 86.9537C30.9787 88.0535 33.06 88.3902 34.8911 87.46L72.8232 68.1926Z" fill="url(#paint2_linear_614_45)"/>
<path d="M30.1072 28.6892L61.23 57.5793L72.2308 47.5076L34.8898 28.5403C33.2753 27.7203 31.4664 27.8849 30.1072 28.6892Z" fill="url(#paint3_linear_614_45)"/>
</g>
<path d="M109.969 38.5078V37.1641L114.82 37.1562V41.4062C114.076 42 113.307 42.4479 112.516 42.75C111.724 43.0469 110.911 43.1953 110.078 43.1953C108.953 43.1953 107.93 42.9557 107.008 42.4766C106.091 41.9922 105.398 41.2943 104.93 40.3828C104.461 39.4714 104.227 38.4531 104.227 37.3281C104.227 36.2135 104.458 35.1745 104.922 34.2109C105.391 33.2422 106.062 32.5234 106.938 32.0547C107.812 31.5859 108.82 31.3516 109.961 31.3516C110.789 31.3516 111.536 31.487 112.203 31.7578C112.875 32.0234 113.401 32.3958 113.781 32.875C114.161 33.3542 114.451 33.9792 114.648 34.75L113.281 35.125C113.109 34.5417 112.896 34.0833 112.641 33.75C112.385 33.4167 112.021 33.151 111.547 32.9531C111.073 32.75 110.547 32.6484 109.969 32.6484C109.276 32.6484 108.677 32.7552 108.172 32.9688C107.667 33.1771 107.258 33.4531 106.945 33.7969C106.638 34.1406 106.398 34.5182 106.227 34.9297C105.935 35.638 105.789 36.4062 105.789 37.2344C105.789 38.2552 105.964 39.1094 106.312 39.7969C106.667 40.4844 107.18 40.9948 107.852 41.3281C108.523 41.6615 109.237 41.8281 109.992 41.8281C110.648 41.8281 111.289 41.7031 111.914 41.4531C112.539 41.1979 113.013 40.9271 113.336 40.6406V38.5078H109.969ZM117.32 43V31.5469H118.836V43H117.32ZM124.43 43V32.8984H120.656V31.5469H129.734V32.8984H125.945V43H124.43ZM135.711 43V31.5469H137.227V43H135.711ZM142.82 43V32.8984H139.047V31.5469H148.125V32.8984H144.336V43H142.82ZM153.383 37.4219C153.383 35.5208 153.893 34.0339 154.914 32.9609C155.935 31.8828 157.253 31.3438 158.867 31.3438C159.924 31.3438 160.878 31.5964 161.727 32.1016C162.576 32.6068 163.221 33.3125 163.664 34.2188C164.112 35.1198 164.336 36.1432 164.336 37.2891C164.336 38.4505 164.102 39.4896 163.633 40.4062C163.164 41.3229 162.5 42.0182 161.641 42.4922C160.781 42.9609 159.854 43.1953 158.859 43.1953C157.781 43.1953 156.818 42.9349 155.969 42.4141C155.12 41.8932 154.477 41.1823 154.039 40.2812C153.602 39.3802 153.383 38.4271 153.383 37.4219ZM154.945 37.4453C154.945 38.8255 155.315 39.9141 156.055 40.7109C156.799 41.5026 157.732 41.8984 158.852 41.8984C159.992 41.8984 160.93 41.4974 161.664 40.6953C162.404 39.8932 162.773 38.7552 162.773 37.2812C162.773 36.349 162.615 35.5365 162.297 34.8438C161.984 34.1458 161.523 33.6068 160.914 33.2266C160.31 32.8411 159.63 32.6484 158.875 32.6484C157.802 32.6484 156.878 33.0182 156.102 33.7578C155.331 34.4922 154.945 35.7214 154.945 37.4453ZM166.281 43V31.5469H167.836L173.852 40.5391V31.5469H175.305V43H173.75L167.734 34V43H166.281Z" fill="white"/>
<path d="M116.451 69.3149V65.335H126.731V74.7451C125.732 75.7119 124.282 76.5659 122.381 77.3071C120.49 78.0376 118.573 78.4028 116.628 78.4028C114.158 78.4028 112.004 77.8872 110.167 76.856C108.33 75.814 106.95 74.3315 106.026 72.4087C105.102 70.4751 104.64 68.375 104.64 66.1084C104.64 63.6484 105.156 61.4624 106.187 59.5503C107.218 57.6382 108.728 56.1719 110.715 55.1514C112.229 54.3672 114.115 53.9751 116.371 53.9751C119.303 53.9751 121.591 54.5928 123.235 55.8281C124.889 57.0527 125.953 58.75 126.425 60.9199L121.688 61.8062C121.355 60.646 120.727 59.7329 119.803 59.0669C118.89 58.3901 117.746 58.0518 116.371 58.0518C114.287 58.0518 112.627 58.7124 111.392 60.0337C110.167 61.355 109.555 63.3154 109.555 65.915C109.555 68.7188 110.178 70.8242 111.424 72.2314C112.67 73.6279 114.303 74.3262 116.322 74.3262C117.321 74.3262 118.32 74.1328 119.319 73.7461C120.329 73.3486 121.194 72.8706 121.914 72.312V69.3149H116.451ZM130.067 69.2021C130.067 67.6982 130.438 66.2427 131.179 64.8354C131.92 63.4282 132.967 62.354 134.321 61.6128C135.685 60.8716 137.205 60.501 138.881 60.501C141.47 60.501 143.591 61.3442 145.246 63.0308C146.9 64.7065 147.727 66.8281 147.727 69.3955C147.727 71.9844 146.889 74.1328 145.213 75.8408C143.548 77.5381 141.448 78.3867 138.913 78.3867C137.345 78.3867 135.846 78.0322 134.417 77.3232C133 76.6143 131.92 75.5776 131.179 74.2134C130.438 72.8384 130.067 71.168 130.067 69.2021ZM134.708 69.4438C134.708 71.1411 135.11 72.4409 135.916 73.3433C136.722 74.2456 137.715 74.6968 138.897 74.6968C140.079 74.6968 141.067 74.2456 141.862 73.3433C142.667 72.4409 143.07 71.1304 143.07 69.4116C143.07 67.7358 142.667 66.4468 141.862 65.5444C141.067 64.6421 140.079 64.1909 138.897 64.1909C137.715 64.1909 136.722 64.6421 135.916 65.5444C135.11 66.4468 134.708 67.7466 134.708 69.4438ZM150.241 69.2021C150.241 67.6982 150.611 66.2427 151.353 64.8354C152.094 63.4282 153.141 62.354 154.495 61.6128C155.859 60.8716 157.379 60.501 159.055 60.501C161.644 60.501 163.765 61.3442 165.419 63.0308C167.074 64.7065 167.901 66.8281 167.901 69.3955C167.901 71.9844 167.063 74.1328 165.387 75.8408C163.722 77.5381 161.622 78.3867 159.087 78.3867C157.519 78.3867 156.02 78.0322 154.591 77.3232C153.173 76.6143 152.094 75.5776 151.353 74.2134C150.611 72.8384 150.241 71.168 150.241 69.2021ZM154.881 69.4438C154.881 71.1411 155.284 72.4409 156.09 73.3433C156.896 74.2456 157.889 74.6968 159.071 74.6968C160.252 74.6968 161.241 74.2456 162.036 73.3433C162.841 72.4409 163.244 71.1304 163.244 69.4116C163.244 67.7358 162.841 66.4468 162.036 65.5444C161.241 64.6421 160.252 64.1909 159.071 64.1909C157.889 64.1909 156.896 64.6421 156.09 65.5444C155.284 66.4468 154.881 67.7466 154.881 69.4438ZM171.043 79.1279L176.215 79.7563C176.301 80.3579 176.5 80.7715 176.812 80.9971C177.241 81.3193 177.918 81.4805 178.842 81.4805C180.023 81.4805 180.91 81.3032 181.5 80.9487C181.898 80.7124 182.199 80.3311 182.403 79.8047C182.542 79.4287 182.612 78.7358 182.612 77.7261V75.2285C181.259 77.0762 179.551 78 177.488 78C175.189 78 173.369 77.0278 172.026 75.0835C170.973 73.5474 170.447 71.6353 170.447 69.3472C170.447 66.479 171.134 64.2876 172.509 62.7729C173.895 61.2583 175.614 60.501 177.666 60.501C179.782 60.501 181.527 61.4302 182.902 63.2886V60.8877H187.14V76.2437C187.14 78.2632 186.974 79.7725 186.641 80.7715C186.308 81.7705 185.84 82.5547 185.239 83.124C184.637 83.6934 183.832 84.1392 182.822 84.4614C181.823 84.7837 180.555 84.9448 179.019 84.9448C176.119 84.9448 174.062 84.4453 172.848 83.4463C171.634 82.458 171.027 81.2012 171.027 79.6758C171.027 79.5254 171.032 79.3428 171.043 79.1279ZM175.087 69.0894C175.087 70.9048 175.437 72.2368 176.135 73.0854C176.844 73.9233 177.714 74.3423 178.745 74.3423C179.852 74.3423 180.786 73.9126 181.549 73.0532C182.312 72.1831 182.693 70.8994 182.693 69.2021C182.693 67.4297 182.328 66.1138 181.597 65.2544C180.867 64.395 179.943 63.9653 178.826 63.9653C177.741 63.9653 176.844 64.3896 176.135 65.2383C175.437 66.0762 175.087 67.3599 175.087 69.0894ZM191.636 78V54.3779H196.164V78H191.636ZM210.73 72.5537L215.242 73.311C214.662 74.9653 213.743 76.2275 212.486 77.0977C211.24 77.957 209.677 78.3867 207.797 78.3867C204.822 78.3867 202.62 77.4146 201.191 75.4702C200.063 73.9126 199.499 71.9468 199.499 69.5728C199.499 66.7368 200.24 64.5186 201.723 62.918C203.205 61.3066 205.08 60.501 207.346 60.501C209.892 60.501 211.901 61.3442 213.373 63.0308C214.844 64.7065 215.548 67.2793 215.483 70.749H204.14C204.172 72.0918 204.537 73.1392 205.235 73.8911C205.934 74.6323 206.804 75.0029 207.846 75.0029C208.555 75.0029 209.151 74.8096 209.634 74.4229C210.118 74.0361 210.483 73.4131 210.73 72.5537ZM210.988 67.9775C210.956 66.667 210.617 65.6733 209.973 64.9966C209.328 64.3091 208.544 63.9653 207.62 63.9653C206.632 63.9653 205.815 64.3252 205.171 65.0449C204.526 65.7646 204.209 66.7422 204.22 67.9775H210.988ZM228.406 78V54.3779H236.06C238.96 54.3779 240.851 54.4961 241.732 54.7324C243.085 55.0869 244.219 55.8604 245.132 57.0527C246.045 58.2344 246.501 59.7651 246.501 61.645C246.501 63.0952 246.238 64.3145 245.712 65.3027C245.186 66.291 244.514 67.0698 243.698 67.6392C242.892 68.1978 242.07 68.5684 241.232 68.751C240.094 68.9766 238.445 69.0894 236.286 69.0894H233.176V78H228.406ZM233.176 58.374V65.0771H235.786C237.666 65.0771 238.923 64.9536 239.557 64.7065C240.19 64.4595 240.685 64.0728 241.039 63.5464C241.404 63.02 241.587 62.4077 241.587 61.7095C241.587 60.8501 241.334 60.1411 240.83 59.5825C240.325 59.0239 239.686 58.6748 238.912 58.5352C238.343 58.4277 237.199 58.374 235.48 58.374H233.176ZM250.385 78V54.3779H254.913V78H250.385ZM262.953 66.1084L258.844 65.3672C259.306 63.7129 260.101 62.4883 261.229 61.6934C262.357 60.8984 264.033 60.501 266.256 60.501C268.276 60.501 269.78 60.7427 270.768 61.2261C271.756 61.6987 272.449 62.3057 272.847 63.0469C273.255 63.7773 273.459 65.1255 273.459 67.0913L273.411 72.3765C273.411 73.8804 273.48 74.9922 273.62 75.7119C273.771 76.4209 274.044 77.1836 274.442 78H269.962C269.844 77.6992 269.699 77.2534 269.527 76.6626C269.452 76.394 269.398 76.2168 269.366 76.1309C268.593 76.8828 267.766 77.4468 266.885 77.8228C266.004 78.1987 265.064 78.3867 264.065 78.3867C262.303 78.3867 260.912 77.9087 259.892 76.9526C258.882 75.9966 258.377 74.7881 258.377 73.3271C258.377 72.3604 258.608 71.501 259.07 70.749C259.532 69.9863 260.176 69.4062 261.003 69.0088C261.841 68.6006 263.044 68.2461 264.613 67.9453C266.729 67.5479 268.195 67.1772 269.012 66.8335V66.3823C269.012 65.5122 268.797 64.8945 268.367 64.5293C267.938 64.1533 267.126 63.9653 265.934 63.9653C265.128 63.9653 264.5 64.1265 264.049 64.4487C263.598 64.7603 263.232 65.3135 262.953 66.1084ZM269.012 69.7822C268.432 69.9756 267.513 70.2065 266.256 70.4751C265 70.7437 264.178 71.0068 263.791 71.2646C263.2 71.6836 262.905 72.2153 262.905 72.8599C262.905 73.4937 263.141 74.0415 263.614 74.5034C264.086 74.9653 264.688 75.1963 265.418 75.1963C266.235 75.1963 267.014 74.9277 267.755 74.3906C268.303 73.9824 268.663 73.4829 268.834 72.8921C268.953 72.5054 269.012 71.7695 269.012 70.6846V69.7822ZM275.795 60.8877H280.613L284.706 73.0371L288.702 60.8877H293.391L287.349 77.3555L286.269 80.3364C285.872 81.3354 285.49 82.0981 285.125 82.6245C284.771 83.1509 284.357 83.5752 283.884 83.8975C283.422 84.2305 282.848 84.4883 282.16 84.6709C281.483 84.8535 280.715 84.9448 279.856 84.9448C278.986 84.9448 278.132 84.8535 277.294 84.6709L276.891 81.126C277.6 81.2656 278.239 81.3354 278.809 81.3354C279.861 81.3354 280.64 81.0239 281.145 80.4009C281.65 79.7886 282.037 79.0044 282.305 78.0483L275.795 60.8877Z" fill="white"/>
</g>
<defs>
<filter id="filter0_d_614_45" x="0" y="0" width="320" height="120" filterUnits="userSpaceOnUse" color-interpolation-filters="sRGB">
<feFlood flood-opacity="0" result="BackgroundImageFix"/>
<feColorMatrix in="SourceAlpha" type="matrix" values="0 0 0 0 0 0 0 0 0 0 0 0 0 0 0 0 0 0 127 0" result="hardAlpha"/>
<feOffset dx="2" dy="2"/>
<feGaussianBlur stdDeviation="5"/>
<feComposite in2="hardAlpha" operator="out"/>
<feColorMatrix type="matrix" values="0 0 0 0 0.670833 0 0 0 0 0.670833 0 0 0 0 0.670833 0 0 0 0.25 0"/>
<feBlend mode="normal" in2="BackgroundImageFix" result="effect1_dropShadow_614_45"/>
<feBlend mode="normal" in="SourceGraphic" in2="effect1_dropShadow_614_45" result="shape"/>
</filter>
<linearGradient id="paint0_linear_614_45" x1="49.6923" y1="46.1707" x2="29.909" y2="67.7788" gradientUnits="userSpaceOnUse">
<stop stop-color="#00C3FF"/>
<stop offset="1" stop-color="#1BE2FA"/>
</linearGradient>
<linearGradient id="paint1_linear_614_45" x1="61.23" y1="57.579" x2="89.8452" y2="57.579" gradientUnits="userSpaceOnUse">
<stop stop-color="#FFCE00"/>
<stop offset="1" stop-color="#FFEA00"/>
</linearGradient>
<linearGradient id="paint2_linear_614_45" x1="28.9235" y1="90.5393" x2="64.5665" y2="59.5824" gradientUnits="userSpaceOnUse">
<stop stop-color="#DE2453"/>
<stop offset="1" stop-color="#FE3944"/>
</linearGradient>
<linearGradient id="paint3_linear_614_45" x1="30.7684" y1="25.4647" x2="64.6398" y2="55.436" gradientUnits="userSpaceOnUse">
<stop stop-color="#11D574"/>
<stop offset="1" stop-color="#01F176"/>
</linearGradient>
</defs>
</svg>
