<svg width="200" height="200" viewBox="0 0 200 200" fill="none" xmlns="http://www.w3.org/2000/svg">
<path d="M176.992 134.627C207.626 104.005 207.661 54.3523 177.147 23.5245C169.865 16.1344 161.199 10.2524 151.647 6.2173C142.095 2.18221 131.842 0.0693131 121.482 0.00155959C111.121 -0.063684 100.856 1.91873 91.2741 5.83336C81.6919 9.748 72.9833 15.5196 65.6504 22.8169C56.9067 31.4642 50.3219 42.0463 46.4233 53.7149C42.5246 65.3835 41.4251 77.8125 43.2075 89.998C43.6593 93.0193 43.3982 96.1034 42.4493 99.0017C41.4979 101.9 39.8862 104.537 37.7348 106.7L26.207 118.224L81.8049 173.801L93.3326 162.278C95.4715 160.138 98.0798 158.524 100.954 157.571C103.826 156.617 106.884 156.349 109.884 156.785C122.037 158.589 134.438 157.523 146.091 153.676C157.744 149.829 168.326 143.305 176.992 134.627Z" fill="#FFCC48"/>
<path d="M63.2718 155.277C63.3973 155.093 75.9317 136.87 91.092 119.578C94.3405 115.869 97.4659 112.482 100.466 109.41C98.1412 108.484 96.03 107.099 94.2627 105.337C93.0677 104.13 92.0058 102.8 91.092 101.37C87.3515 105.714 82.9131 110.396 77.7769 115.42C63.6308 129.244 49.1307 140.71 48.9851 140.822L46.7734 138.004C46.9165 137.892 61.2861 126.529 75.2941 112.838C81.0253 107.234 85.6018 102.329 89.2419 98.0425C87.3716 94.03 86.1968 89.7265 85.765 85.3074C84.9717 77.6889 86.3147 70.5749 89.272 66.7405C92.0912 63.0818 96.1932 62.4118 100.524 64.8986C103.895 66.8309 105.725 69.6865 105.966 73.3778C106.363 79.4631 102.193 87.867 93.5321 98.4666C94.4459 100.038 95.553 101.485 96.8283 102.778L96.8358 102.785C98.6458 104.552 100.86 105.849 103.29 106.574C118.066 92.0501 129.581 85.7064 137.62 87.6964C142.759 88.9686 144.041 91.4655 144.212 93.3375C144.767 99.4553 134.602 104.785 131.474 106.273C125.246 109.237 118.4 111.001 112.197 111.237C109.548 111.36 106.898 111.147 104.309 110.599C101.086 113.849 97.594 117.598 93.8108 121.912C78.7911 139.043 66.3621 157.108 66.2366 157.289L63.2718 155.277ZM100.486 69.3678C99.9512 68.8434 99.3512 68.3917 98.6985 68.0253C95.912 66.4243 93.8183 66.7079 92.1138 68.9187C88.4887 73.6212 87.9139 85.5508 91.7899 94.946C100.599 83.9072 102.615 77.4104 102.369 73.6539C102.301 72.0328 101.631 70.5046 100.486 69.3678ZM140.12 92.7603C139.5 92.1405 138.328 91.5934 136.714 91.1944C131.961 90.0201 123.225 92.3764 107.508 107.453C114.7 108.281 123.17 106.251 129.956 103.024C137.123 99.6134 140.8 95.6787 140.622 93.7063C140.569 93.34 140.394 93.0062 140.12 92.7603Z" fill="black" fill-opacity="0.3"/>
<path d="M35.4484 188.459L11.5444 164.562C9.05405 162.075 5.06 162.035 2.62241 164.471C0.182297 166.91 0.222464 170.903 2.71278 173.39L26.6168 197.289C29.1071 199.776 33.1012 199.816 35.5388 197.379C37.9789 194.94 37.9362 190.948 35.4484 188.459Z" fill="#D1CFDB"/>
<path d="M45.9476 189.322L10.6815 154.07C8.2263 151.613 4.25736 151.601 1.81976 154.037C-0.617837 156.477 -0.605285 160.441 1.84989 162.898L37.116 198.15C39.5711 200.604 43.5376 200.619 45.9777 198.18C48.4153 195.743 48.4027 191.776 45.9476 189.322Z" fill="#D1CFDB"/>
<path d="M45.9476 189.322L10.6815 154.07C8.2263 151.613 4.25736 151.601 1.81976 154.037C-0.617837 156.477 -0.605285 160.441 1.84989 162.898L37.116 198.15C39.5711 200.604 43.5376 200.619 45.9777 198.18C48.4153 195.743 48.4027 191.776 45.9476 189.322Z" fill="black" fill-opacity="0.19"/>
<path d="M64.3572 182.042L17.965 135.666C15.4772 133.179 11.4857 133.141 9.04558 135.578C6.60798 138.017 6.64564 142.007 9.13345 144.494L55.5256 190.87C58.0109 193.357 62.005 193.394 64.4426 190.958C66.8827 188.518 66.8425 184.529 64.3572 182.042Z" fill="#D1CFDB"/>
<path d="M56.2522 188.388L11.6148 143.767C9.08686 141.24 4.88194 141.348 2.22092 144.005C-0.440108 146.665 -0.548055 150.871 1.97992 153.398L46.6173 198.019C49.1453 200.546 53.3527 200.438 56.0112 197.779C58.6723 195.121 58.7802 190.915 56.2522 188.388Z" fill="#D1CFDB"/>
<path d="M64.3572 182.042L17.965 135.666C15.4772 133.179 11.4857 133.141 9.04558 135.578C6.60798 138.017 6.64564 142.007 9.13345 144.494L55.5256 190.87C58.0109 193.357 62.005 193.394 64.4426 190.958C66.8827 188.518 66.8425 184.529 64.3572 182.042Z" fill="#D1CFDB"/>
<path d="M64.3572 182.042L17.965 135.666C15.4772 133.179 11.4857 133.141 9.04558 135.578C6.60798 138.017 6.64564 142.007 9.13345 144.494L55.5256 190.87C58.0109 193.357 62.005 193.394 64.4426 190.958C66.8827 188.518 66.8425 184.529 64.3572 182.042Z" fill="black" fill-opacity="0.19"/>
<path d="M73.1393 176.378L23.6292 126.883C21.1163 124.374 17.1022 124.313 14.6646 126.75C12.2245 129.189 12.2848 133.202 14.7977 135.711L64.3078 185.206C66.8207 187.718 70.8348 187.778 73.2724 185.339C75.7125 182.9 75.6523 178.89 73.1393 176.378Z" fill="#D1CFDB"/>
<path d="M82.7154 169.897L30.1125 117.313C27.567 114.768 23.5278 114.683 21.0877 117.119C18.6501 119.556 18.7354 123.596 21.2835 126.141L73.8839 178.725C76.4294 181.269 80.4711 181.357 82.9087 178.918C85.3463 176.481 85.261 172.441 82.7154 169.897Z" fill="#D1CFDB"/>
<path d="M82.7154 169.897L30.1125 117.313C27.567 114.768 23.5278 114.683 21.0877 117.119C18.6501 119.556 18.7354 123.596 21.2835 126.141L73.8839 178.725C76.4294 181.269 80.4711 181.357 82.9087 178.918C85.3463 176.481 85.261 172.441 82.7154 169.897Z" fill="black" fill-opacity="0.19"/>
</svg>
