<svg width="60" height="60" viewBox="0 0 60 60" fill="none" xmlns="http://www.w3.org/2000/svg">
<path fill-rule="evenodd" clip-rule="evenodd" d="M57.931 41.3794H2.06897V33.1036C2.06897 32.5325 1.60552 32.0691 1.03448 32.0691C0.463448 32.0691 0 32.5325 0 33.1036V46.5518C0 47.3752 0.326896 48.1645 0.90931 48.7459C1.49069 49.3283 2.28 49.6552 3.10345 49.6552H7.24138C7.81241 49.6552 8.27586 49.1918 8.27586 48.6207C8.27586 48.0497 7.81241 47.5863 7.24138 47.5863H3.10345C2.82931 47.5863 2.56552 47.4776 2.37207 47.2832C2.17759 47.0897 2.06897 46.8259 2.06897 46.5518V43.4483H57.931V46.5518C57.931 46.8259 57.8224 47.0897 57.6279 47.2832C57.4345 47.4776 57.1707 47.5863 56.8965 47.5863H11.3793C10.8083 47.5863 10.3448 48.0497 10.3448 48.6207C10.3448 49.1918 10.8083 49.6552 11.3793 49.6552H24.42C24.2545 52.4297 23.5355 56.0142 20.8852 57.931H19.1379C18.5669 57.931 18.1034 58.3945 18.1034 58.9655C18.1034 59.5366 18.5669 60 19.1379 60H40.8621C41.4331 60 41.8965 59.5366 41.8965 58.9655C41.8965 58.3945 41.4331 57.931 40.8621 57.931H39.1148C36.4645 56.0131 35.7455 52.4297 35.58 49.6552H56.8965C57.72 49.6552 58.5093 49.3283 59.0907 48.7459C59.6731 48.1645 60 47.3752 60 46.5518C60 40.3159 60 21.7533 60 15.5174C60 14.694 59.6731 13.9047 59.0907 13.3233C58.5093 12.7409 57.72 12.414 56.8965 12.414H46.5517C45.9807 12.414 45.5172 12.8774 45.5172 13.4485C45.5172 14.0195 45.9807 14.483 46.5517 14.483H56.8965C57.1707 14.483 57.4345 14.5916 57.6279 14.7861C57.8224 14.9795 57.931 15.2433 57.931 15.5174V41.3794ZM33.511 49.6552H26.489C26.3286 52.2735 25.6769 55.5311 23.8148 57.931H36.1852C34.3231 55.5311 33.6714 52.2724 33.511 49.6552ZM12.4138 37.2415H6.2069C5.63586 37.2415 5.17241 37.7049 5.17241 38.276C5.17241 38.847 5.63586 39.3104 6.2069 39.3104H12.4138C12.4138 39.8815 12.8772 40.3449 13.4483 40.3449C14.0193 40.3449 14.4828 39.8815 14.4828 39.3104H53.7931C54.3641 39.3104 54.8276 38.847 54.8276 38.276C54.8276 37.7049 54.3641 37.2415 53.7931 37.2415H14.4828C14.4828 36.6704 14.0193 36.207 13.4483 36.207C12.8772 36.207 12.4138 36.6704 12.4138 37.2415ZM41.3793 18.6209H18.6207C16.9066 18.6209 15.5172 20.0102 15.5172 21.7243C15.5172 24.6943 15.5172 30.1336 15.5172 33.1036C15.5172 34.8177 16.9066 36.207 18.6207 36.207H41.3793C43.0934 36.207 44.4828 34.8177 44.4828 33.1036C44.4828 30.1336 44.4828 24.6943 44.4828 21.7243C44.4828 20.0102 43.0934 18.6209 41.3793 18.6209ZM41.3793 20.6898C41.9503 20.6898 42.4138 21.1533 42.4138 21.7243V33.1036C42.4138 33.6746 41.9503 34.138 41.3793 34.138H18.6207C18.0497 34.138 17.5862 33.6746 17.5862 33.1036V21.7243C17.5862 21.1533 18.0497 20.6898 18.6207 20.6898H41.3793ZM34.621 28.3284C34.9603 28.1494 35.1724 27.7977 35.1724 27.4139C35.1724 27.0301 34.9603 26.6784 34.621 26.4995L27.7676 22.8788C27.4469 22.7091 27.061 22.7205 26.7507 22.9077C26.4403 23.094 26.25 23.4302 26.25 23.7933V31.0346C26.25 31.3977 26.4403 31.7339 26.7507 31.9201C27.061 32.1074 27.4469 32.1187 27.7676 31.9491L34.621 28.3284ZM13.4483 12.414H3.10345C2.28 12.414 1.49069 12.7409 0.90931 13.3233C0.326896 13.9047 0 14.694 0 15.5174C0 18.1129 0 24.3943 0 29.4829C0 30.0539 0.463448 30.5174 1.03448 30.5174C1.60552 30.5174 2.06897 30.0539 2.06897 29.4829V15.5174C2.06897 15.2433 2.17759 14.9795 2.37207 14.7861C2.56552 14.5916 2.82931 14.483 3.10345 14.483H13.4483C14.0193 14.483 14.4828 14.0195 14.4828 13.4485C14.4828 12.8774 14.0193 12.414 13.4483 12.414ZM31.9231 27.4139L28.319 29.3184V25.5095L31.9231 27.4139ZM18.1417 6.32506C18.1428 6.32402 29.5045 0.126465 29.5045 0.126465C29.8138 -0.042155 30.1862 -0.042155 30.4955 0.126465L41.8748 6.33333C42.2069 6.51437 42.4138 6.86299 42.4138 7.24161C42.4138 7.62023 42.2069 7.96885 41.8748 8.14988L38.2759 10.1123V14.483C38.2759 16.1971 36.8866 17.5864 35.1724 17.5864H24.8276C23.1134 17.5864 21.7241 16.1971 21.7241 14.483V10.1123L19.6552 8.9847V14.483C19.6552 15.054 19.1917 15.5174 18.6207 15.5174C18.0497 15.5174 17.5862 15.054 17.5862 14.483V7.24161C17.5862 6.84333 17.8117 6.49782 18.1417 6.32506ZM36.2069 11.2409L30.4955 14.3567C30.1862 14.5254 29.8138 14.5254 29.5045 14.3567L23.7931 11.2409V14.483C23.7931 15.054 24.2565 15.5174 24.8276 15.5174H35.1724C35.7434 15.5174 36.2069 15.054 36.2069 14.483V11.2409ZM22.6779 6.20713H26.8966C27.4676 6.20713 27.931 6.67057 27.931 7.24161C27.931 7.81264 27.4676 8.27608 26.8966 8.27608H22.6779L30 12.2702L39.2193 7.24161L30 2.21301L22.6779 6.20713Z" fill="#FFC107"/>
</svg>
