<svg width="60" height="60" viewBox="0 0 60 60" fill="none" xmlns="http://www.w3.org/2000/svg">
<rect width="60" height="60" rx="20" fill="#D9D9D9"/>
<path d="M30 17.5558L34.6434 11.8803C34.6434 11.8803 42.5972 12.0491 50.5228 15.7333C48.4936 18.8017 44.4661 20.3035 44.4661 20.3035C44.1947 17.6078 42.3061 16.9497 36.3 16.9497L30.0014 52.5L23.6592 16.9427C17.6967 16.9427 15.8081 17.6022 15.5367 20.2965C15.5367 20.2965 11.5078 18.8101 9.48 15.7404C17.4042 12.0561 25.3594 11.8874 25.3594 11.8874L30.0028 17.5558H29.9958H30ZM30 10.2463C36.4013 10.1873 43.7334 11.2349 51.24 14.5156C52.2441 12.6987 52.5 11.9014 52.5 11.9014C44.2973 8.64887 36.6136 7.52953 30 7.5C23.3864 7.52953 15.7027 8.64325 7.5 11.9014C7.5 11.9014 7.86563 12.89 8.76 14.524C16.268 11.2279 23.5988 10.1887 30 10.2393V10.2463Z" fill="#E10000"/>
</svg>
