<svg width="80" height="80" viewBox="0 0 100 101" fill="none" xmlns="http://www.w3.org/2000/svg">
<path d="M20 18.3408C19.454 19.6419 19.1909 20.2229 18.4876 21.3734C17.5067 22.9785 16.1212 24.9785 14.4065 24.9956C12.8835 25.0098 12.4922 23.9302 10.4232 23.943C8.35558 23.9544 7.92459 25.0155 6.4003 24.9998C4.68563 24.9828 3.37285 23.1774 2.39058 21.5709C-0.355269 17.0823 -0.642149 11.8124 1.05137 9.00988C2.25442 7.01984 4.15417 5.85507 5.93891 5.85507C7.7567 5.85507 8.90025 6.92609 10.4021 6.92609C11.8603 6.92609 12.7487 5.85223 14.8507 5.85223C16.4371 5.85223 18.1214 6.78263 19.3205 8.38773C15.3914 10.7016 16.0286 16.73 20 18.3408ZM13.2563 4.05963C14.0191 3.00566 14.5995 1.51988 14.3893 0C13.1413 0.0923289 11.6831 0.944596 10.8304 2.0568C10.0583 3.06532 9.41981 4.56105 9.66703 6.01558C11.0287 6.05962 12.438 5.18604 13.2563 4.05963Z" fill="#FFC107"/>
<path d="M80 9.47368V3.94737L87.0588 2.55789V9.37895L80 9.47368ZM100 0V9.21053L88.2353 9.36842V2.32632L100 0ZM80 10.5263L87.0588 10.6211V17.7895L80 16.5789V10.5263ZM100 10.7895V20L88.2353 17.9895V10.6211L100 10.7895Z" fill="#FFC107"/>
<path d="M56.0005 32.1432C58.7614 32.1432 60.9999 44.615 60.9999 60H65.0002C65.0002 43.4312 60.9704 30 56.0006 30C53.1729 30 50.6501 34.0366 49.0005 40.3487C47.3512 34.0366 44.8276 30 42.0001 30C37.0303 30 33 43.4312 33 60H37.0009C37.0009 44.615 39.2396 32.1432 42.0001 32.1432C44.7614 32.1432 47.0008 43.6557 47.0008 57.858H51.0002C51.0003 43.6557 53.2389 32.1432 56.0005 32.1432ZM67.0026 57.858C67.5452 57.858 68 58.3183 68 58.9239C68 59.5392 67.5452 59.9997 67.0026 59.9997C66.4581 59.9997 65.9995 59.5389 65.9995 58.9239C65.9995 58.3183 66.4581 57.858 67.0026 57.858ZM67.0026 59.8434C67.4621 59.8434 67.819 59.4478 67.819 58.9243C67.819 58.41 67.4619 58.0148 67.0026 58.0148C66.5373 58.0148 66.1808 58.41 66.1808 58.9243C66.1807 59.4476 66.5373 59.8434 67.0026 59.8434ZM66.6136 58.3019H67.0643C67.3401 58.3019 67.4702 58.4196 67.4702 58.6595C67.4702 58.8857 67.3384 58.9803 67.1656 59L67.4974 59.5536H67.3026L66.9865 59.0151H66.7953V59.5536H66.6139L66.6136 58.3019ZM66.7952 58.858H66.9841C67.1432 58.858 67.2898 58.8495 67.2898 58.6511C67.2898 58.4846 67.1569 58.4585 67.0346 58.4585H66.7954L66.7952 58.858Z" fill="#FFC107"/>
<path d="M12.9816 94.9999V81.3154H18.8782L19.761 75.9824H12.9816V72.5774C12.9816 71.0333 13.5321 69.981 16.3747 69.981L20 69.9797V65.2099C19.3727 65.1452 17.2208 65 14.7173 65C9.49034 65 5.91187 67.4852 5.91187 72.0495V75.9825H0V81.3156H5.91168V95L12.9816 94.9999Z" fill="#FFC107"/>
<path d="M88.8845 71.7526L88.8623 71.5002L88.5218 71.0634L88.4177 71.0312L88.3451 71.1414L88.3568 71.2725L88.2422 71.3826L88.2305 71.5348L88.365 71.6115L88.5534 71.7538H88.8845V71.7526Z" fill="#FFC107"/>
<path d="M91.5069 95.0534L91.3665 94.7713L91.1781 94.3617L91.0283 93.9336L90.9184 93.4524L90.8704 93.0391V92.6382L90.9102 92.1656L90.9605 91.928L90.9008 91.7264L90.778 91.6224L90.5311 91.4294L90.3567 91.2983L90.324 91.0459L90.2421 90.7761L90.0876 90.5114L89.9215 90.2862L89.7132 90.0758L89.4488 89.8643L89.1516 89.6292L88.9936 89.5488L88.8368 89.498L88.7046 89.5216L88.5899 89.602L88.5396 89.7331L88.5735 89.9707L88.6882 90.5027L88.8871 91.2042L89.0533 91.6237L89.2756 92.1582L89.4335 92.4724L89.6746 92.9364L89.9636 93.4536L90.1918 93.7864L90.3825 94.0561L90.3907 94.2046L90.3649 94.3259L90.2584 94.3704L89.9378 94.3877L89.3762 94.3518L88.9129 94.2887L88.5057 94.212L88.0107 94.0636L87.7603 93.9473L87.5942 93.8705L87.4058 93.8347L87.1894 93.8433L87.0747 93.8965H86.9167L86.5435 93.8347L86.3305 93.758L86.0977 93.7406L85.7268 93.732L85.4459 93.7048H85.1874L84.9323 93.7221L84.7579 93.7988L84.6339 93.8347L84.5918 93.8965L84.6 94.019L84.7182 94.2207L84.9405 94.5449L85.0727 94.6042L85.281 94.7614L85.5197 94.9012L85.7782 94.9903L86.1492 94.9989L86.4803 94.9631L86.7611 94.895L86.9998 94.8146L87.1004 94.8678L87.1484 94.9717L87.2326 94.9989L87.4374 94.9903L87.696 95.0088L87.8282 95.0534L87.985 95.0088L88.4963 95.0769L88.845 95.1301L89.4148 95.2612L89.8302 95.3911L90.2409 95.5396L90.6024 95.7153L90.7429 95.8217L91.1161 95.839L91.315 95.7858L91.4215 95.5569L91.5362 95.2773L91.5069 95.0534ZM85.6659 94.1564L85.6402 94.2182L85.5957 94.2751L85.5594 94.2875L85.4834 94.29L85.4155 94.2689L85.3851 94.2417L85.3406 94.1823L85.343 94.1291L85.3687 94.0908L85.4553 94.0611L85.5559 94.0401L85.632 94.0376L85.6683 94.0611L85.6765 94.1056L85.6659 94.1564ZM89.691 94.6995L89.6605 94.7416L89.5646 94.7478L89.3984 94.7181L89.2522 94.6909L89.1001 94.6822L88.9538 94.6698L88.6192 94.5807L88.3547 94.4941L88.1664 94.4286L88.1383 94.3716L88.1465 94.3098L88.1827 94.2949L88.4296 94.3778L88.5396 94.4248L88.6543 94.4521L88.7947 94.4731L89.0275 94.5003L89.23 94.5325L89.4207 94.5473L89.5751 94.5832L89.6617 94.6067L89.6874 94.6426V94.6995H89.691ZM90.8376 94.5251L90.8072 94.5844L90.751 94.6315L90.6691 94.6525L90.6247 94.6315L90.6106 94.5807L90.6247 94.5238L90.7007 94.4644L90.7569 94.4496H90.8189L90.8388 94.4768V94.5251H90.8376Z" fill="#FFC107"/>
<path d="M99.9169 82.613L99.8023 82.5561V82.7429L99.7098 82.853L99.5437 83.1141L99.4512 83.1797L99.1927 83.51L99.0885 83.6857L98.9645 83.9802L98.8299 84.0037L98.7059 83.927L98.6322 83.5768L98.6521 83.1735L98.7363 82.7986L98.9411 82.4484L99.3565 81.7914L99.6045 81.2569L99.6349 80.882L99.5952 80.7633L99.5226 80.84L99.3986 81.1666L99.2102 81.497L98.9317 81.7382L98.6111 82.0649L98.1337 82.6563L98.0413 82.6476L98.0109 82.5462L97.9992 82.3049L98.0296 81.8558L98.1759 81.3534L98.4344 80.7954L98.7773 80.3463L99.202 79.9628L99.2418 79.8737L99.1915 79.8316L98.975 79.9504L98.7983 80.0716L98.4976 80.3451L98.1244 80.6952L97.8576 81.0788L97.5978 81.5811L97.4551 81.9882L97.413 82.3927L97.3931 82.9396L97.5171 83.51L97.6411 84.0037L97.8798 84.7794L98.0343 85.7099L98.1267 86.4201V86.8036L98.0869 87.207L98.0249 87.5373L97.9091 87.9085L97.4738 88.4875L97.0292 88.9156L96.4594 89.2546L95.9118 89.2868L95.8392 89.0047L95.6427 88.5976L95.3735 88.2054L95.1969 87.9741L94.9605 87.635L94.4515 87.1216L93.9344 86.6725L93.7074 86.4856L92.9936 85.9746L91.9686 85.0652L91.4093 84.3315L90.7974 83.2712L90.6313 82.6353L90.6734 82.2406L90.7576 82.1639L90.9741 82.3185L91.3169 82.4942L91.5954 82.4818L91.9148 82.6365L92.2576 82.8567L92.4343 83.0077L92.6625 83.1747L92.8988 83.2069L92.9527 83.0968L92.8907 83.0844L92.8181 83.1166L92.7034 83.0398L92.6017 82.8765L92.4554 82.6241L92.1746 82.3507L91.8961 82.2406L91.7416 82.2084L91.7732 82.1218H91.9897L92.2401 82.2084L92.6028 82.4608L92.769 82.5375L92.831 82.4484L92.7268 82.2975L92.446 82.0327L92.0108 81.7927L91.4854 81.5762L91.3813 81.4871L91.4854 81.4104L91.7218 81.5316L92.157 81.6083L92.6227 81.805L92.8696 81.9362L93.3049 82.0018L93.6173 81.9572L93.7916 81.8706L94.0303 81.716L94.1344 81.6096L94.1461 81.5328L94.049 81.5415L93.9566 81.643L93.6477 81.7506L93.3786 81.7952L93.1504 81.763L92.9316 81.5786L92.735 81.3349L92.4987 81.1505L92.1453 81.0738L91.8048 80.9526L91.6586 80.8548L91.6703 80.7682L91.8048 80.7893H92.1055L92.4062 80.7682H92.7151L92.8813 80.7361L93.0159 80.8548L93.2323 80.9117H93.409L93.4909 80.8462L93.3482 80.8016L93.1715 80.6804L92.9854 80.496L92.6847 80.329L92.4378 80.2968L92.2108 80.2647L92.1266 80.2114L92.2928 80.1137H92.5619L92.7701 80.1793L92.9749 80.2894L93.306 80.4403L93.6372 80.4527L93.8138 80.3636L93.8642 80.2449L93.7296 80.1793L93.4511 80.1669L93.2124 80.0803L93.0053 79.8935L92.7772 79.7722L92.4765 79.719L92.2179 79.6213L92.1055 79.4666L92.1254 79.3899L92.2916 79.4258L92.4999 79.4914L92.6239 79.5891L92.8006 79.6101L92.8205 79.5124L92.6356 79.3577L92.5818 79.2179L92.831 79.26L93.0673 79.3911L93.368 79.427L93.4839 79.6559L93.7928 79.8526L93.8092 79.8502L93.877 79.8205L93.9589 79.7673L93.9191 79.7017L93.8033 79.7104L93.6992 79.5594L93.4909 79.2204L93.1282 78.8789L92.7573 78.7032L92.6531 78.5721L92.425 78.2875L92.2167 78.1687L92.1863 78.0586L92.2787 77.993L92.4975 78.0462L92.9304 78.1774L93.1387 78.2541L93.2733 78.4533L93.4897 78.5721H93.6559L93.8747 78.6376L94.1134 78.5931L94.2058 78.5065L94.0713 78.3852L93.8747 78.332L93.6465 78.2999L93.512 78.1786L93.3353 77.9052L93.2932 77.7295L93.065 77.513L92.8181 77.3459L92.5373 77.1616L92.2284 76.856L92.2085 76.7669H92.2787L92.6836 77.1059L93.0966 77.3583L93.3154 77.534L93.5939 77.8074L93.8431 77.9497L93.987 77.9943L94.0596 77.873L93.9554 77.8309L93.739 77.6231L93.6769 77.3917L93.45 77.1307L93.2616 76.9636L93.1691 76.7137L92.8485 76.2089L92.4133 75.8043L92.3934 75.6732L92.5478 75.6942L92.7666 75.813L93.1177 75.9676L93.4804 75.9887L93.7495 76.1223L94.0385 76.1755L94.2854 76.0988L94.2655 75.9887L93.9847 75.9231L93.7378 75.8043L93.2405 75.5519L92.9714 75.3972L92.8275 75.2129L92.8778 75.1473L92.9503 75.2005L93.0627 75.2451L93.2089 75.2574H93.4476L93.6524 75.2339L93.9648 75.2129L94.2035 75.3106L94.4504 75.4975L94.5545 75.5296L94.5662 75.4319L94.482 75.3428L94.2351 75.1015L93.8501 74.8937L93.5716 74.8615L93.0439 74.8293L92.9211 74.6747L92.652 74.3901L92.3513 74.1736L92.2389 74.0635L92.3314 73.9868L92.4741 74.0523L92.7327 74.1946L93.0252 74.3047L93.4184 74.4025H93.7588L94.0397 74.7328L94.2678 74.8751L94.3497 74.786L94.0408 74.3047L93.5553 73.9336L93.1504 73.8321L92.8076 73.4523L92.5069 73.2654L92.0938 73.1553L92.322 72.9475L92.7268 72.8052L93.0276 72.7074L93.0978 72.6097L93.058 72.533L92.8918 72.4884L92.735 72.4563L91.5661 72.4798L91.3579 72.236L91.1215 72.0727L90.8208 71.9304L90.4277 71.8648H90.0872L89.9947 71.7337L89.6741 71.3712L89.2892 71L89.0528 71.4157L89.0411 71.5469L89.1535 71.7015L89.1652 71.8327L89.0833 71.9094L88.8223 71.9304L88.3473 71.7881L87.8804 71.6817L87.664 71.6904L87.3106 71.7671L87.3527 71.8983L87.5493 71.8896L87.6312 71.9044L87.6289 72.0207L87.5142 72.048L87.3656 72.0269L87.1409 72.0777L86.9724 72.1346L86.8379 72.1432L86.7958 72.2051L86.8437 72.2917L86.9455 72.3152L87.0415 72.2855L87.1515 72.2348L87.2638 72.2286L87.5025 72.241L87.685 72.3004L87.9015 72.3573L88.2186 72.5082L88.2467 72.58L88.2127 72.6369L88.0641 72.6938L87.974 72.7384L87.8137 72.851L87.5692 72.9883L87.272 73.211L86.9268 73.357L86.6577 73.5438L86.4132 73.6564L86.1826 73.7158L85.9802 73.722L85.7017 73.7282L85.5953 73.7579L85.5333 73.8952L85.4853 74.0437L85.4315 74.1451L85.2969 74.3592L85.167 74.5967L85.0804 74.713L85.0723 74.8467L85.0804 75.0335V75.2327L85.1951 75.3428L85.2969 75.3997L85.4174 75.3911L85.614 75.3341L85.8363 75.2624L86.137 75.1349L86.2575 75.1411L86.2856 75.2216L86.2575 75.2983L86.1557 75.3552L85.8492 75.4764L85.6187 75.5482L85.5742 75.6286L85.566 75.7152L85.6421 75.787L85.8024 75.808H85.9323L86.0949 75.8018L86.2716 75.7573L86.5278 75.615L86.6963 75.5791L86.8391 75.5494L86.949 75.5878L87.1093 75.5791L87.2673 75.6002L87.3972 75.6806L87.5996 75.7016L87.864 75.7882L88.0068 75.8093L88.2291 75.7672L88.5134 75.7882L88.6375 75.8389L88.7053 75.9602L88.6913 76.1173L88.6573 76.3103L88.5895 76.5331L88.4935 76.8127L88.3976 77.1183L88.2958 77.3979L88.2279 77.5909L87.9974 77.9708L87.7189 78.3419L87.4686 78.7069L87.1515 79.0422L86.8589 79.3033L86.6729 79.5112L86.5746 79.8526L86.4389 80.0221L86.2646 80.1533L86.0539 80.3377L85.731 80.5455L85.4584 80.6903L85.284 80.9006L85.16 81.0713L85.036 81.1518L84.8616 81.2433L84.7493 81.2161L84.527 81.1085L84.2801 80.939L83.9174 80.7695L83.5102 80.5443L83.2996 80.3748L83.0387 80.1521L82.752 79.9021L82.4431 79.7834L82.1705 79.7326L81.8218 79.8093L81.5749 79.9553L81.362 80.1125L81.252 80.4008L81.1759 80.6235L81.0893 80.9649L80.991 81.1728L80.8928 81.4908L80.8787 81.8706L80.7921 82.0933L80.6939 82.4472L80.6073 82.801L80.447 83.1314L80.3604 83.458L80.3101 83.8651L80.172 84.2066L80.0854 84.4021L80.0737 84.5988L80.062 84.9291V85.5057L80 85.7433L80.0363 85.9511L80.0222 86.2926L80.1346 86.566L80.2211 86.6316L80.3814 86.5784L80.53 86.4361L80.743 86.1627L80.929 85.8484L81.0016 85.5874L80.9536 85.377L80.8916 85.116L80.8155 84.8017L80.743 84.4726L80.7032 84.2227V83.9876L80.7535 83.7228L80.8776 83.3182L81.0016 83.1079L81.1139 83.0015L81.2005 82.8592L81.3608 82.8444L81.4368 82.7936L81.5492 82.686L81.6732 82.5697L81.7855 82.4125L81.8335 82.2282L81.8733 82.0711L81.885 81.8607L81.9213 81.6764L82.0078 81.5601L82.0944 81.5328L82.2068 81.5712L82.3671 81.6628L82.5414 81.8731L82.7274 82.1614L82.938 82.4224L83.1627 82.6328L83.3616 82.8023L83.5582 82.8938L83.6202 83.025L83.5582 83.0906L83.3476 83.0398L83.0504 83.0126L82.6654 82.9322L82.2945 82.8555L81.8475 82.8406L81.5866 82.8555L81.3877 82.9866L81.1771 83.1821L81.0027 83.4964L80.8682 83.8527L80.8542 84.1138L80.9302 84.5864L81.1045 85.189L81.1911 85.6616L81.3011 86.1219L81.3772 86.446L81.4134 86.7492L81.5117 87.0907L81.5878 87.614L81.6603 87.7984L81.8487 87.9555L82.0231 88.1399L82.2196 88.4554L82.3577 88.8241L82.5683 89.1507L82.8772 89.465L83.1007 89.611L83.2493 89.6233L83.3733 89.585L83.4494 89.4006L83.5336 89.2435L83.5839 89.0208V88.5098L83.5219 88.3638C83.5102 88.3638 83.5102 88.2722 83.5102 88.2599L83.4845 88.1683L83.3827 88.0112L83.1966 87.8145L82.8515 87.6573L82.7251 87.6153L82.7029 87.3925L82.7146 87.2503L82.4782 86.962L82.3296 86.5933L82.2056 86.0699L82.105 85.5861L81.9341 85.2063L81.8721 84.746L81.9704 84.4701L82.1447 84.3662H82.2793L82.4782 84.5505L82.7649 84.7349L83.0621 84.8512L83.7817 85.2199L84.1303 85.4302V85.6257L84.4509 85.8212L84.8616 85.9672H85.7181L85.6561 86.1367L85.6198 86.2283L85.7298 86.4485L85.9404 86.7789L86.2774 87.1327L86.6846 87.6054L87.0333 87.932L87.685 88.4603L88.2127 88.7597L88.6094 88.9824L89.1184 89.3474L89.5876 89.7013L89.9924 90.0638L90.4136 90.6664L90.4335 90.9188L90.5295 91.1798L90.788 91.3765L91.0244 91.4743L91.1707 91.4533L91.2865 91.3345L91.4526 91.1476L91.4924 90.8952L91.689 90.5352L91.7311 90.2593L91.7627 89.9537L91.7826 89.7124L91.847 89.5615L91.9792 89.4934H92.1055L92.1137 89.5949L92.0213 89.7013L91.9394 89.9327L91.8774 90.0749V90.2506L91.8551 90.6218L91.8048 90.8086L91.6504 91.0907L91.4421 91.4533L91.235 91.8479L91.1122 92.3614L91.0501 92.8996L91.1122 93.4997L91.1941 93.8498L91.3906 94.3101L91.641 94.857L91.8376 95.2851L92.1067 95.7342L92.4273 96.1499L92.4893 96.2922V96.3899L92.4472 96.5112L92.3349 96.7079L92.1582 96.969L91.7955 97.4627L91.4327 97.8784L91.1016 98.2619L90.9589 98.351L90.6664 98.4698L90.492 98.6455L90.3996 98.8447L90.1913 99.1181L89.9561 99.3916L89.6671 99.7095L89.4904 100.036L89.3863 100.367L89.3243 100.64L89.336 100.86L89.46 101H89.9152L90.1117 100.979L90.3177 100.849L90.5868 100.718L90.6289 100.608H90.7213L90.8641 100.542L90.9987 100.409L91.0724 99.8852L91.0302 99.7751L91.0104 99.665L91.0841 99.686L91.1648 99.7095L91.2491 99.644L91.3836 99.5549L91.5264 99.3581L91.703 99.0934L91.7955 98.8533L91.8154 98.6566L91.9312 98.5675L92.0974 98.4698L92.2319 98.3832L92.3442 98.1432L92.5829 97.8796L93.0287 97.4429L93.368 97.2028L93.7109 97.0036L93.7916 96.917L93.8232 96.8279L93.8957 96.7302L93.8454 96.6003L93.8349 96.359L93.7893 96.1338L93.7354 96.0027L93.6173 95.7886L93.4289 95.5387L93.3365 95.3519L93.3166 95.1552V94.8916L93.3587 94.7407L93.471 94.3336L93.5857 94.1369L93.7097 94.0602L93.9367 93.9092L94.2058 93.6655L94.5685 93.3388L94.8154 93.0654L95.0646 92.7598L95.3232 92.4505L95.5093 92.1028L95.6637 91.8059L95.81 91.4669L95.9141 91.092L95.9457 90.7443L95.9656 90.4795L96.0498 90.3929L96.1423 90.3694L96.2242 90.4263L96.2967 90.6107L96.3166 90.8631L96.3506 91.1031L96.3283 91.2664L96.3084 91.5188V92.057L96.3704 92.4814L96.443 92.5915L96.505 92.5829L96.5354 92.5062L96.4933 92.3305V92.0335L96.5775 91.7836L96.6173 91.4211L96.6595 91.1687L96.7133 91.0499H96.7753L96.8256 91.1031L96.8759 91.311L96.918 91.5102L96.8981 91.8244L96.8361 92.2525L96.6478 92.6682L96.4734 93.0629L96.3693 93.4019L96.3494 93.6098L96.3693 93.8498L96.4418 94.0812H96.5764L96.6466 93.9797L96.6068 93.8696L96.5764 93.6729L96.6992 93.4972L96.8432 93.2894L96.9391 93.0939L97.1661 92.7103L97.3521 92.3602L97.434 91.9766L97.5066 91.4718V90.972L97.4141 90.6218L97.2281 90.3484L97.2059 90.2185L97.2901 90.1739L97.3943 90.2271L97.5288 90.4028L97.695 90.7208L97.7652 91.092L97.8073 91.5856L97.9114 91.9271L97.9231 91.9358L98.0659 92.2748L98.1583 92.3107L98.2004 92.2216L98.1899 92.1684L98.1197 91.916L98.1092 91.6636L98.1197 91.2924L98.1817 90.8767V90.6688L98.1595 90.4931L97.9933 90.1418L97.8506 89.8893L97.9009 89.7916L98.0975 89.7471L98.3666 89.6171L98.6556 89.4538L98.9142 89.2138L99.2453 88.7412L99.4337 88.349L99.5881 87.9753L99.6384 87.3752L99.6501 86.837L99.5682 86.1714L99.4723 85.6901L99.3904 85.1964L99.3401 84.6829L99.3799 84.3563L99.4641 83.9492L99.6384 83.5446L99.8877 83.1289L99.9801 82.8641L100 82.733L99.9169 82.613ZM85.8398 74.6895L85.7579 74.7761L85.6432 74.8442L85.4888 74.8801L85.435 74.8442L85.4151 74.7279L85.4607 74.5646L85.5707 74.4037L85.6608 74.3567L85.7427 74.3654L85.841 74.452L85.8855 74.5287L85.8398 74.6895ZM86.2435 74.5831L86.2154 74.598L86.1592 74.6004L86.1148 74.5769L86.0785 74.5324L86.0844 74.4792L86.1265 74.4074L86.1604 74.3839H86.2049L86.2447 74.3926L86.2587 74.4371L86.2646 74.5151L86.2435 74.5831ZM86.7443 75.0706L86.7022 75.0916H86.6483L86.6179 75.0743L86.6015 75.0261L86.6074 74.9667L86.6378 74.9308L86.6776 74.9283L86.7197 74.9407L86.7396 74.9729L86.7536 75.0261L86.7443 75.0706ZM87.7014 73.5376L87.637 73.5562L87.5587 73.5772L87.4721 73.6539L87.2778 73.7789L87.0111 73.8556L86.8449 73.9002L86.6846 73.9125L86.6027 73.9039L86.7326 73.7876L86.9713 73.6663L87.21 73.5537L87.437 73.4411L87.5411 73.3879L87.6195 73.3756L87.6838 73.3904L87.7342 73.477L87.7014 73.5376ZM80.468 85.8509L80.3838 85.8299L80.3417 85.7433L80.4259 85.6987L80.4996 85.7074L80.5195 85.7841L80.468 85.8509ZM81.555 81.2582L81.4965 81.4895L81.4205 81.7506L81.2859 81.9708L81.2134 81.9919L81.1876 81.9325V81.8162L81.2017 81.6591L81.2555 81.3621L81.3737 81.1456L81.4357 81.0689L81.5258 81.0417L81.5597 81.0949L81.555 81.2582ZM82.1541 80.3871L82.0195 80.4403L81.8908 80.4552L81.8124 80.423L81.7925 80.3636L81.8148 80.2832L81.8826 80.2325L82.0231 80.2152L82.0956 80.209L82.1459 80.2238L82.1904 80.2684L82.1927 80.3191L82.1541 80.3871ZM83.2516 81.9535L83.2235 81.956L83.1557 81.9115L83.0609 81.8545L82.979 81.7828L82.9029 81.7024L82.869 81.6578L82.8608 81.5922L82.8772 81.5601L82.9053 81.5625L82.9533 81.5712L83.0071 81.6219L83.0691 81.6813L83.1674 81.7432L83.2259 81.8174L83.2622 81.8743L83.2645 81.9251L83.2516 81.9535ZM81.4064 83.5125L81.3561 83.5867L81.3058 83.6077L81.2719 83.5781L81.2742 83.4716L81.3585 83.317L81.3842 83.2724L81.4263 83.2514L81.4661 83.2786V83.3677L81.4404 83.4296L81.4064 83.5125ZM81.7574 86.2728L81.7411 86.3H81.7212L81.6849 86.2679L81.6568 86.211L81.6124 86.107L81.548 85.9709L81.4836 85.7569L81.4497 85.5552L81.4439 85.3201L81.4743 85.0888L81.4907 85.0615H81.5211L81.5515 85.0912L81.5819 85.231L81.5843 85.3733L81.6381 85.554L81.7025 85.747L81.7305 85.9165L81.7703 86.1924L81.7574 86.2728ZM83.0106 88.8006L83.0445 88.7919L83.1264 88.8105L83.1627 88.8525L83.1709 88.9032L83.1627 88.9626L83.1147 89.001L83.0562 88.9899L83.0141 88.9478L82.9965 88.8562L83.0106 88.8006ZM83.8226 84.7992L83.7384 84.8054L83.6284 84.7881L83.5523 84.7522L83.3757 84.6359L83.2013 84.4986L83.0047 84.3736L82.9369 84.3204L83.027 84.3179L83.1253 84.3563L83.2937 84.4008L83.4482 84.4813L83.6284 84.5642L83.7571 84.626L83.825 84.6916L83.8367 84.751L83.8226 84.7992ZM84.7575 82.2381L84.6393 82.5882L84.5352 82.9235L84.3527 83.1636L84.2602 83.2378L84.1619 83.2762L84.1058 83.2341L84.0999 83.1574L84.1783 83.0683L84.2602 82.926L84.3644 82.686L84.4264 82.4571L84.4825 82.2319L84.5925 82.0154L84.6662 81.9053L84.7283 81.8867L84.7844 81.9102L84.802 81.982L84.7575 82.2381ZM89.2634 75.2896L89.3559 75.1646L89.4624 75.0582L89.5583 74.9902L89.6285 74.984L89.6765 75.0162V75.1077L89.6507 75.2092L89.5443 75.3168L89.4179 75.3997L89.2892 75.4356L89.2272 75.4146L89.219 75.3614L89.2634 75.2896ZM88.8878 72.9846L88.9779 72.9524L89.04 72.9227L89.1184 72.9524L89.1441 73.0118L89.0856 73.0836L89.0037 73.1157L88.9054 73.1219L88.8691 73.0502L88.8878 72.9846ZM88.1062 73.7542L88.07 73.6502L88.1238 73.5339L88.242 73.43L88.4304 73.4213L88.5684 73.4486L88.6749 73.5265L88.7287 73.6601L88.7732 73.8024L88.765 73.9274L88.6468 73.9744H88.5204L88.3683 73.9088L88.2338 73.8321L88.1062 73.7542ZM88.5672 75.2785L88.4069 75.3168H88.263L88.2373 75.2661L88.2736 75.2129L88.3157 75.1857L88.5965 74.9753L88.7673 74.8627L88.8715 74.7947H88.9077L88.9136 74.8751L88.8434 74.9345L88.8095 75.057L88.7229 75.1993L88.5672 75.2785ZM86.6963 80.7088L86.6764 80.6767L86.6823 80.5962L86.7326 80.5368L86.9093 80.4601L87.2778 80.3389L87.6464 80.2906H87.8711L88.0559 80.3327L88.2303 80.4243L88.3683 80.5665L88.3765 80.647L88.3601 80.7039L88.3016 80.7163L88.2115 80.7039L88.0735 80.6618L87.9436 80.621L87.7833 80.6024H87.5844L87.4159 80.6L87.2673 80.6148L87.1012 80.6445L86.9689 80.6828L86.8402 80.7125L86.756 80.7187L86.6963 80.7088ZM89.0283 88.7709L88.8399 88.6459L88.5228 88.4232L88.0314 88.073L87.8324 87.9308L87.6218 87.7563L87.3913 87.5336L87.2228 87.3938L87.0204 87.1859L86.8882 87.0399L86.8063 86.9063L86.7759 86.7455L86.7817 86.597L86.8355 86.5401L86.928 86.5463L87.0742 86.639L87.231 86.7999L87.3469 86.9484L87.4709 87.0795L87.5914 87.2366L87.7435 87.4123L87.8874 87.5818L88.359 88.0149L88.6199 88.2611L88.8527 88.4838L89.0411 88.6706L89.0774 88.7325L89.1031 88.777L89.0283 88.7709ZM89.1546 81.9795L89.0961 82.0154L88.9534 82.0179L88.8574 81.9944L88.8036 81.9201L88.7591 81.8607V81.7655L88.8293 81.6702L88.9358 81.5811L89.0364 81.5663L89.1289 81.5935L89.157 81.6467L89.1687 81.7655L89.1827 81.8904L89.1546 81.9795ZM89.4378 77.0836L89.3793 77.3125L89.2471 77.6775L89.0704 77.9868L88.8738 78.3729L88.5591 78.8393L88.3204 79.1041L88.1542 79.1721L88.1004 79.1697L88.0922 79.1251L88.1425 79.0002L88.3449 78.6698L88.5111 78.3073L88.6597 77.9955L88.9241 77.4548L89.1745 77.0329L89.3032 76.9018L89.4015 76.8844L89.4436 76.9562L89.4378 77.0836ZM90.0146 75.4975L89.9842 75.5779L89.8742 75.714L89.7221 75.7907L89.57 75.8563L89.412 75.8587H89.3138L89.2798 75.8105L89.3161 75.7424L89.4027 75.7004L89.5548 75.6224L89.7291 75.5098L89.811 75.448L89.9351 75.3849L90.0135 75.4059V75.4975H90.0146ZM90.8372 80.5096L90.781 80.527L90.7085 80.5208L90.6605 80.47L90.6722 80.4255L90.7202 80.3896L90.7927 80.3834L90.8547 80.4366L90.8571 80.4812L90.8372 80.5096ZM90.9214 80.2189H90.8372L90.7916 80.1917V80.1261L90.8114 80.0815L90.8559 80.0667H90.9156L90.9717 80.105L90.9776 80.1521L90.9214 80.2189ZM91.0759 79.7697L91.0185 79.7994L90.96 79.8081L90.898 79.7933L90.8781 79.7487V79.6955L90.9285 79.6572L90.9905 79.6448H91.0501L91.0864 79.6769L91.0946 79.7277L91.0759 79.7697ZM91.1543 79.3924L91.0782 79.4159L90.994 79.4134L90.9495 79.3812L90.9472 79.3454L90.9612 79.2922L91.0279 79.26L91.1016 79.2489L91.1636 79.281L91.1859 79.3429L91.1543 79.3924ZM91.3368 78.8641L91.2947 78.9235L91.2549 78.9767L91.1765 78.994H91.0981L91.0302 78.9581L91.0244 78.9012L91.0724 78.848L91.1086 78.8034L91.1625 78.7824L91.2491 78.7552H91.3169L91.3473 78.7935L91.3368 78.8641ZM91.4491 78.4211L91.4129 78.483L91.3485 78.4954L91.2806 78.5139L91.1964 78.5114L91.1601 78.4669L91.166 78.4013L91.1941 78.3568L91.2502 78.3147L91.3368 78.3023L91.4152 78.3197L91.4491 78.3704V78.4211ZM91.5673 78.0945L91.4807 78.1328L91.4129 78.1563H91.3286L91.2947 78.1502L91.2526 78.1353L91.2303 78.0908L91.2409 78.0339L91.297 77.9807L91.345 77.9534L91.3988 77.9299L91.4749 77.9275L91.5486 77.9547L91.579 78.0165L91.5673 78.0945ZM91.579 77.586L91.5486 77.6392L91.4948 77.6862L91.4164 77.7159L91.3239 77.7245L91.2479 77.7134L91.228 77.6652L91.2397 77.6268L91.2701 77.6033L91.4047 77.5291L91.469 77.5142L91.5486 77.5229L91.579 77.5526V77.586ZM91.3169 76.3833H91.3649L91.3906 76.366L91.4012 76.3128L91.4117 76.272L91.4351 76.2423L91.4772 76.2398L91.5275 76.2547L91.5732 76.2819L91.579 76.3388L91.5732 76.4304L91.5065 76.4922L91.4187 76.5368L91.3824 76.5306L91.3462 76.5157L91.3099 76.4675L91.304 76.4143L91.3169 76.3833ZM91.3169 76.0035V75.959L91.3544 75.9206L91.4129 75.8971L91.4831 75.8946L91.5252 75.9095L91.5369 75.9478L91.5135 75.9862L91.4772 76.0283L91.4175 76.0431H91.3555L91.3169 76.0035ZM91.3204 77.2061L91.3707 77.174L91.4304 77.1591L91.4889 77.1529L91.531 77.1554L91.5474 77.1826V77.2272L91.5275 77.2742L91.4877 77.3212L91.3895 77.3657L91.3415 77.3595L91.297 77.3447L91.2853 77.294L91.2947 77.2371L91.3204 77.2061ZM91.5732 76.8411L91.5591 76.8795L91.4971 76.924L91.4129 76.9562L91.3661 76.9438L91.3204 76.9166L91.3122 76.8684L91.3181 76.809L91.352 76.7731L91.4 76.7372L91.4702 76.7224L91.5299 76.7199L91.5696 76.7323L91.5837 76.7743L91.5732 76.8411ZM91.5954 75.5841L91.5872 75.6348L91.5568 75.6793L91.5065 75.7004L91.4585 75.7127L91.4164 75.7189L91.3602 75.7127L91.3462 75.6769L91.3602 75.6299L91.3941 75.5977L91.4316 75.5766L91.4936 75.5321L91.5579 75.5346L91.5954 75.5841ZM91.5088 75.1473L91.5427 75.1684L91.5486 75.2191L91.5451 75.2673L91.4924 75.3181L91.4421 75.3391L91.4082 75.3329L91.3824 75.3181V75.2698L91.3848 75.2191L91.421 75.1782L91.455 75.1572L91.5088 75.1473ZM91.4433 74.9011L91.4292 74.9543L91.3918 74.984L91.3579 75.005L91.3122 75.0112L91.276 74.9877L91.2678 74.9456L91.2842 74.9098L91.3181 74.8615L91.352 74.8442L91.3965 74.8417L91.4339 74.8652L91.4433 74.9011ZM90.9834 73.941L91.0653 73.9348L91.18 73.8878L91.2842 73.8643L91.3707 73.8581L91.4152 73.9026L91.3532 74.0004L91.2912 74.0177L91.1882 74.056L91.0536 74.1365L90.9249 74.2082L90.7763 74.2738L90.726 74.28L90.6839 74.2651L90.6898 74.1996L90.6675 74.1377V74.0251L90.7155 73.8977L90.7822 73.821L90.8255 73.7616L90.8699 73.7022H90.9378L90.9846 73.7529L90.9741 73.8779L90.9834 73.941ZM90.9355 72.7594L90.9659 72.7804L90.9554 72.8126L90.9097 72.8695L90.8477 72.8757L90.774 72.8646L90.7319 72.8435L90.7015 72.8052L90.7377 72.773L90.7904 72.7495L90.8723 72.747L90.9355 72.7594ZM90.5482 72.2991L90.6886 72.2843L90.7646 72.3115L90.8243 72.3437L90.8267 72.3969L90.7763 72.4204L90.6979 72.4266L90.6219 72.4204L90.5622 72.408L90.5119 72.3697L90.5482 72.2991ZM91.6352 87.7254L91.5673 87.7909L91.5053 87.8652L91.4433 88.0025L91.4234 88.0978L91.3813 88.1337L91.2994 88.1225L91.2596 88.0718L91.2736 87.8912L91.3181 87.6647L91.3403 87.5398L91.3941 87.3826L91.4339 87.3356L91.4924 87.3233H91.5708L91.6048 87.3567L91.6633 87.4482L91.675 87.6239L91.6352 87.7254ZM91.7697 85.5775L91.4152 85.3807L91.2303 85.1939L90.9214 84.8673L90.6406 84.4924L90.3937 84.068L90.1972 83.5422L90.1153 83.1797L90.1539 82.9718L90.2662 82.9396L90.3809 82.9965L90.4546 83.2131L90.5166 83.531L90.6289 83.8614L90.9214 84.3427L91.3146 84.9551L91.7697 85.5775ZM91.7955 91.9667L91.7159 92.1981L91.6773 92.3107L91.6036 92.4864L91.5474 92.6918L91.531 92.7511L91.5111 92.7895H91.4573L91.4152 92.6559L91.4129 92.5037L91.4433 92.2958L91.5135 92.0113L91.6293 91.8356L91.7335 91.6995L91.8259 91.6871L91.8516 91.7762L91.7955 91.9667ZM92.205 95.0747L92.1851 95.0772L92.1488 95.0599L92.081 94.956L91.9803 94.7803L91.9324 94.664L91.9043 94.5031V94.3546L91.9101 94.2656L91.93 94.2383H91.9745L92.0225 94.2594L92.0845 94.3361L92.1301 94.4697L92.1605 94.6479L92.1629 94.7902L92.1652 94.8409L92.191 94.9089L92.2167 95.0463L92.205 95.0747ZM90.1293 100.211L90.0872 100.297L90.0369 100.378L89.955 100.435L89.8766 100.452H89.8426L89.8064 100.422L89.7947 100.36L89.8087 100.282L89.8508 100.193L89.9655 100.072L90.0521 100.015L90.1141 100.013L90.1457 100.04L90.1539 100.102L90.1293 100.211ZM90.8992 98.8979L90.8559 98.9597L90.8033 98.9919L90.7389 99.0154L90.6909 99.0006L90.6628 98.9474L90.6687 98.8942L90.7167 98.8311L90.8126 98.7692L90.8828 98.7568L90.9167 98.7779L90.9261 98.8311L90.8992 98.8979ZM92.618 97.0853L92.494 97.2783L92.3279 97.4837L92.1395 97.6767L91.9406 97.8969L91.7545 98.0751L91.6083 98.2149L91.5264 98.2718L91.4725 98.2694L91.4468 98.2248L91.4585 98.1506L91.6867 97.8833L92.0061 97.5183L92.3945 97.1051L92.4671 97.0222L92.5771 96.948L92.6169 96.9566L92.6496 97.0012L92.618 97.0853ZM93.3341 96.5001L93.3821 96.4815L93.4441 96.484L93.4722 96.4988L93.4745 96.531L93.45 96.5731L93.3938 96.6263L93.3435 96.6857H93.3095L93.2709 96.6621L93.2616 96.6114L93.278 96.5607L93.3341 96.5001ZM95.4075 90.5204L95.3958 90.6181L95.3677 90.7097L95.3501 90.7926L95.2916 90.8284L95.2378 90.8136L95.2109 90.7604L95.1934 90.5736L95.0752 90.4016L95.0646 90.2593L95.1313 90.1702L95.2015 90.1467L95.2694 90.1529L95.3256 90.2061L95.3899 90.2927L95.4075 90.3904V90.5204ZM98.906 87.1253L98.9001 87.2651L98.8475 87.5707L98.7738 87.8318L98.6895 88.0607L98.5632 88.3094L98.4192 88.5234L98.2028 88.7907L97.9559 89.0406L97.8295 89.0728L97.7617 89.0406L97.7511 88.9453L97.8049 88.8179L97.8775 88.6781L98.0097 88.4937L98.1525 88.2883L98.287 88.0656L98.4192 87.8367L98.5199 87.614L98.5795 87.3851L98.6298 87.1241L98.6415 86.8333L98.6521 86.5722L98.6357 86.3433L98.61 86.0786L98.5877 85.8286L98.5737 85.6888L98.6462 85.6121L98.6942 85.6393L98.7305 85.7606L98.803 86.0006L98.8627 86.2889L98.9048 86.5648V87.1253H98.906Z" fill="#FFC107"/>
</svg>
